<?xml version="1.0" standalone="no"?>
<!DOCTYPE svg PUBLIC "-//W3C//DTD SVG 1.1//EN" "http://www.w3.org/Graphics/SVG/1.1/DTD/svg11.dtd" >
<svg xmlns="http://www.w3.org/2000/svg">
<metadata></metadata>
<defs>
<font id="forzabook" horiz-adv-x="1441" >
<font-face units-per-em="2048" ascent="1638" descent="-410" />
<missing-glyph horiz-adv-x="460" />
<glyph horiz-adv-x="2048" />
<glyph horiz-adv-x="2048" />
<glyph unicode="&#xd;" horiz-adv-x="681" />
<glyph unicode=" "  horiz-adv-x="460" />
<glyph unicode="&#x09;" horiz-adv-x="460" />
<glyph unicode="&#xa0;" horiz-adv-x="460" />
<glyph unicode="!" horiz-adv-x="684" d="M244 1358v76h198v-76l-55 -948h-74zM248 0v209h188v-209h-188z" />
<glyph unicode="&#x22;" horiz-adv-x="808" d="M129 1395v39h207v-39l-62 -488h-84zM485 1395v39h207v-39l-61 -488h-84z" />
<glyph unicode="#" horiz-adv-x="1540" d="M88 393v133h283l100 414h-250v133h281l88 361h145l-88 -361h408l88 361h145l-88 -361h252v-133h-283l-100 -414h250v-133h-283l-94 -393h-145l96 393h-408l-96 -393h-145l94 393h-250zM510 520h418l102 426h-420z" />
<glyph unicode="$" horiz-adv-x="1349" d="M154 432h157q2 -141 10.5 -191.5t28.5 -70.5q31 -33 119 -33h145v518l-161 17q-158 14 -213 69q-37 39 -51.5 102.5t-14.5 200.5q0 133 18.5 207t63.5 119q63 63 215 64h139v163h133v-163h136q156 0 215 -60q43 -43 59 -112.5t18 -249.5h-155q-2 219 -39 252 q-31 33 -113 32h-125v-503l181 -17q156 -14 208 -67q39 -39 54.5 -105.5t15.5 -208t-18.5 -214t-63.5 -118.5q-63 -63 -211 -63h-162v-184h-133v184h-161q-158 0 -220 61q-41 41 -57 113t-18 258zM330 1047q0 -94 7 -132t30 -61q29 -27 127 -37l120 -12v491h-129 q-82 0 -116 -32q-39 -39 -39 -217zM739 137h148q82 0 117 33q39 39 38 223q0 100 -7 138t-29 61q-29 29 -127 39l-140 12v-506z" />
<glyph unicode="%" horiz-adv-x="1716" d="M141 1071.5q0 145.5 16.5 212t55.5 100.5q49 49 156 50h102q102 0 156 -50q37 -35 53 -101t16 -211.5t-16 -212t-53 -101.5q-53 -49 -156 -49h-102q-106 0 -156 49q-39 35 -55.5 101.5t-16.5 212zM268 1071q0 -194 33 -227q27 -25 84 -25h70q57 0 82 25q34 30 34 227 t-34 227q-25 25 -82 25h-70q-57 0 -84 -25q-33 -33 -33 -227zM301 -6l518 756l467 690h131l-516 -752l-471 -694h-129zM1020 362.5q0 245.5 72 313.5q49 49 155 49h103q106 0 155 -49q39 -35 55.5 -101.5t16.5 -212t-16.5 -212t-55.5 -101.5q-49 -49 -155 -49h-103 q-106 0 -155 49q-72 68 -72 313.5zM1147 362.5q0 -196.5 35 -227.5q25 -25 82 -24h69q55 0 84 24q33 33 33 227.5t-33 227.5q-29 25 -84 24h-69q-57 0 -82 -24q-35 -31 -35 -227.5z" />
<glyph unicode="&#x26;" horiz-adv-x="1421" d="M127 416q0 160 12.5 220t57.5 103q53 55 202 74l15 2q-45 86 -45 227q0 150 14 219.5t55 110.5q61 61 232 62h133q145 0 201 -56q43 -41 57 -112.5t14 -229.5h-151q-2 203 -35 236q-27 29 -113 28h-94q-94 0 -123 -30q-20 -20 -26.5 -66.5t-6.5 -163.5q0 -104 25 -157 q14 -39 84 -115l262 -274h16l244 325h174l-325 -432l362 -387h-203l-241 258h-19l-98 -135q-92 -125 -258 -125h-103q-170 0 -237 68q-47 47 -64.5 122.5t-17.5 227.5zM281 416q0 -117 10 -169t37 -79q37 -37 151 -37h47q115 0 172 78l117 156l-323 337l-68 -14 q-74 -12 -109 -47q-35 -39 -34 -225z" />
<glyph unicode="'" horiz-adv-x="454" d="M129 1395v39h207v-39l-62 -488h-84z" />
<glyph unicode="(" horiz-adv-x="796" d="M203 563.5q0 325.5 18 427.5q12 74 72.5 175.5t204.5 287.5h114q-205 -342 -223 -442q-20 -100 -20 -448.5t20 -448.5q18 -100 223 -443h-114q-143 186 -204 287.5t-73 175.5q-18 103 -18 428.5z" />
<glyph unicode=")" horiz-adv-x="796" d="M184 -328q205 342 224 443q20 100 20 448t-20 449q-18 100 -224 442h115q145 -188 205.5 -288.5t70.5 -174.5q19 -102 19 -427.5t-19 -428.5q-10 -74 -70.5 -174t-205.5 -289h-115z" />
<glyph unicode="*" horiz-adv-x="1056" d="M170 1022v127l266 -33v-61zM293 807l162 213l53 -31l-105 -246zM293 1364l110 63l105 -245l-53 -31zM547 989l55 31l162 -213l-113 -64zM547 1182l104 245l113 -63l-162 -213zM621 1055v61l266 33v-127z" />
<glyph unicode="+" horiz-adv-x="1052" d="M127 676v135h332v332h135v-332h332v-135h-332v-332h-135v332h-332z" />
<glyph unicode="," horiz-adv-x="466" d="M59 -274l140 200q16 27 16 58v16h-84v213h203v-205q0 -74 -45 -127l-172 -200z" />
<glyph unicode="-" horiz-adv-x="835" d="M129 575v154h578v-154h-578z" />
<glyph unicode="." horiz-adv-x="471" d="M137 0v213h199v-213h-199z" />
<glyph unicode="/" horiz-adv-x="978" d="M-68 -328l836 1782h154l-836 -1782h-154z" />
<glyph unicode="0" horiz-adv-x="1402" d="M156 716.5q0 313.5 31.5 451t97.5 196.5q43 41 99 55.5t167 14.5h301q109 0 166 -15.5t100 -54.5q63 -61 96 -198.5t33 -448.5t-32.5 -448.5t-96.5 -198.5q-43 -39 -100 -54.5t-166 -15.5h-301q-111 0 -167 14.5t-99 55.5q-66 59 -97.5 196t-31.5 450.5zM326 717 q0 -287 19.5 -395.5t55.5 -143.5q43 -39 154 -39h293q111 0 153 39q37 37 56.5 145.5t19.5 393t-19.5 393.5t-56.5 145q-42 39 -153 39h-293q-111 0 -154 -39q-37 -35 -56 -143t-19 -395z" />
<glyph unicode="1" horiz-adv-x="788" d="M66 1298l335 138h136v-1436h-162v1272l-262 -103z" />
<glyph unicode="2" horiz-adv-x="1316" d="M162 0v178q0 152 19.5 223.5t70.5 124.5q59 59 197 115l403 160q92 39 123 82q37 53 37 190t-47 180q-37 39 -144 39h-291q-96 0 -133 -39q-41 -43 -43 -241h-164q2 160 21.5 234.5t64.5 121.5q68 66 234 66h352q160 0 225 -66q90 -90 91 -295q0 -117 -16.5 -177 t-55.5 -110q-49 -61 -209 -127l-403 -159q-92 -39 -125 -76q-49 -55 -50 -207v-76h871v-141h-1028z" />
<glyph unicode="3" horiz-adv-x="1339" d="M143 446h166q8 -227 53 -272q39 -35 142 -35h313q106 0 141 37q53 49 54 232q0 174 -51 229q-46 39 -144 39h-313v137h299q104 0 143 41q53 49 53 201q0 156 -53 205q-33 35 -139 34h-293q-104 0 -139 -34q-47 -43 -56 -246h-163q4 260 98 354q70 66 235 66h357 q168 0 233 -66q92 -92 92 -301q0 -266 -186 -322v-2q98 -20 148.5 -100t50.5 -240q0 -246 -92 -337q-66 -66 -234 -66h-379q-170 0 -235 66q-53 51 -75 139t-26 241z" />
<glyph unicode="4" horiz-adv-x="1337" d="M100 381v57q0 63 37 123l533 785q33 51 60.5 69.5t72.5 18.5h196v-920h244v-133h-244v-381h-157v381h-742zM276 514h566v786h-35z" />
<glyph unicode="5" horiz-adv-x="1351" d="M160 414h164q2 -195 47 -240q37 -35 133 -35h340q92 0 135 39q51 47 51 266q0 213 -51 265q-43 37 -135 36h-215q-86 0 -151.5 -21.5t-149.5 -78.5l-140 49l50 740h919v-146h-770l-37 -500h17q70 59 130 78t171 19h198q166 0 240 -72q51 -51 72.5 -133t21.5 -235.5 t-21.5 -235.5t-72.5 -133q-76 -76 -240 -76h-383q-172 0 -235 66q-49 47 -68.5 117.5t-19.5 230.5z" />
<glyph unicode="6" horiz-adv-x="1366" d="M160 717q0 309 31.5 446t97.5 199q45 41 103.5 56.5t170.5 15.5h307q158 0 220 -64q47 -47 65.5 -115.5t18.5 -216.5h-164q-4 180 -45 222q-35 35 -129 34h-271q-117 0 -162 -41q-37 -37 -56 -145.5t-19 -388.5q88 66 137 86t119 20h295q182 0 254 -69q47 -47 64 -121 t17 -217q0 -246 -94 -340q-76 -78 -250 -78h-317q-106 0 -165.5 16.5t-102.5 57.5q-63 59 -94 194t-31 449zM328 623q6 -375 78 -443q41 -41 155 -41h281q111 0 153 43q51 55 52 232q0 180 -48 229q-44 43 -157 43h-301q-92 0 -213 -63z" />
<glyph unicode="7" horiz-adv-x="1198" d="M98 1290v144h996v-105l-639 -1329h-176l626 1290h-807z" />
<glyph unicode="8" horiz-adv-x="1374" d="M158 401q0 299 204 342v2q-188 43 -188 318q0 205 92 295q76 76 244 76h354q170 0 244 -76q94 -92 94 -295q0 -274 -190 -318v-2q205 -43 205 -342q0 -229 -95 -323q-80 -78 -256 -78h-356q-178 0 -256 78q-96 94 -96 323zM328 406q0 -166 53 -224q43 -43 154 -43h305 q111 0 153 43q53 53 54 224q0 172 -56 227q-49 47 -157 47h-293q-109 0 -158 -47q-55 -55 -55 -227zM344 1057q0 -154 51 -201q46 -45 148 -45h291q102 0 147 45q51 51 51 201q0 145 -51 196q-41 41 -141 41h-305q-98 0 -140 -41q-51 -47 -51 -196z" />
<glyph unicode="9" horiz-adv-x="1368" d="M154 1004q0 258 94 352q78 78 250 78h319q106 0 164.5 -16.5t101.5 -57.5q63 -61 95 -196.5t32 -446.5q0 -307 -31.5 -445.5t-97.5 -199.5q-45 -41 -103 -56.5t-173 -15.5h-334q-158 0 -221 63q-45 45 -63.5 113t-20.5 209h160q4 -170 45 -211q35 -35 127 -35h305 q117 0 162 41q39 37 56 134.5t19 371.5q-88 -63 -137 -83.5t-117 -20.5h-297q-180 0 -251 69q-47 47 -65.5 125t-18.5 228zM322 1010q0 -197 47 -246q44 -43 159 -43h301q94 0 211 61q-4 395 -75 471q-45 41 -156 41h-283q-111 0 -153 -43q-51 -55 -51 -241z" />
<glyph unicode=":" horiz-adv-x="475" d="M139 0v213h199v-213h-199zM139 883v213h199v-213h-199z" />
<glyph unicode=";" horiz-adv-x="473" d="M61 -274l140 200q16 27 16 58v16h-84v213h203v-205q0 -76 -45 -127l-172 -200zM135 883v213h203v-213h-203z" />
<glyph unicode="&#x3c;" horiz-adv-x="1036" d="M137 672v135l744 379v-152l-594 -293l594 -292v-154z" />
<glyph unicode="=" horiz-adv-x="1052" d="M139 483v146h774v-146h-774zM139 858v146h774v-146h-774z" />
<glyph unicode="&#x3e;" horiz-adv-x="1036" d="M156 295v149l594 293l-594 295v154l743 -379v-135z" />
<glyph unicode="?" horiz-adv-x="1110" d="M100 1004q0 178 14.5 252.5t57.5 117.5q59 59 211 60h326q150 0 213 -64q76 -76 75 -287q0 -125 -15 -181t-62 -103q-33 -35 -213 -115q-80 -37 -111 -68q-39 -39 -43 -196h-123v59q0 106 11.5 157.5t43.5 84.5q41 41 166 96q117 49 146 78q25 25 33 60.5t8 121.5 q0 143 -39 187q-33 29 -113 28h-280q-82 0 -111 -28q-35 -31 -37 -260h-158zM399 0v207h185v-207h-185z" />
<glyph unicode="@" horiz-adv-x="1931" d="M199 563q0 614 143 758q59 57 135 85t230 28h542q147 0 221 -26t132 -81q131 -131 131 -668q0 -385 -91 -471q-61 -61 -165 -61h-52q-139 0 -227 123q-88 -76 -135 -99.5t-113 -23.5h-80q-141 0 -196 57q-43 41 -62.5 124t-19.5 263.5t19.5 263.5t62.5 123q55 57 196 58 h80q66 0 112 -23.5t132 -99.5l31 123h96l-12 -225v-451q0 -84 34 -119q33 -33 121 -33q94 0 135 41q37 39 54.5 133.5t17.5 296.5q0 508 -121 629q-47 49 -111.5 68.5t-195.5 19.5h-534q-137 0 -203 -22.5t-119 -75.5q-59 -61 -93 -219t-34 -496t34 -495.5t95 -221.5 q51 -51 117.5 -73.5t202.5 -22.5h839v-57h-841q-154 0 -230 27.5t-135 84.5q-68 68 -105.5 235t-37.5 523zM721 571q0 -256 41 -301q33 -33 119 -32h94q94 0 209 77v510q-119 80 -205 80h-98q-86 0 -119 -33q-41 -45 -41 -301z" />
<glyph unicode="A" horiz-adv-x="1329" d="M55 0l467 1386q10 33 24.5 43.5t53.5 10.5h129q37 0 52.5 -10.5t25.5 -43.5l467 -1386h-174l-142 438h-600l-141 -438h-162zM403 575h510l-233 721h-43z" />
<glyph unicode="B" horiz-adv-x="1378" d="M195 0v1434h716q156 0 222 -60q47 -43 67.5 -111.5t20.5 -207.5q0 -143 -48.5 -212t-150.5 -98v-2q119 -23 166 -96.5t47 -238.5q0 -160 -22.5 -231t-69.5 -114q-63 -63 -223 -63h-725zM356 139h539q100 0 131 29q47 48 47 238q0 186 -49 235q-35 35 -131 35h-537v-537z M356 813h525q96 0 131 33q47 47 47 211t-45 209q-28 28 -124 28h-7h-527v-481z" />
<glyph unicode="C" horiz-adv-x="1382" d="M156 717q0 338 28.5 469t89.5 190q63 57 226 58h424q162 0 225 -58q53 -51 77.5 -133t28.5 -256h-159q-6 225 -58 277q-34 30 -125 30h-6h-391q-96 0 -131 -30q-66 -66 -66 -547t66 -547q35 -31 131 -31h391h11q86 0 120 31q51 51 60 299h159q-8 -195 -31.5 -277.5 t-76.5 -134.5q-63 -57 -225 -57h-424q-162 0 -226 57q-61 59 -89.5 190.5t-28.5 469.5z" />
<glyph unicode="D" horiz-adv-x="1429" d="M195 0v1434h647q207 0 303 -88q70 -68 105.5 -211.5t35.5 -418t-36 -417.5t-105 -211q-96 -88 -303 -88h-647zM356 139h486q131 0 182 51q98 93 98 525q0 436 -98 528q-33 31 -71 41t-111 10h-486v-1155z" />
<glyph unicode="E" horiz-adv-x="1253" d="M195 0v1434h952v-140h-791v-481h678v-137h-678v-537h785v-139h-946z" />
<glyph unicode="F" horiz-adv-x="1167" d="M195 0v1434h899v-140h-738v-510h613v-137h-613v-647h-161z" />
<glyph unicode="G" horiz-adv-x="1413" d="M156 717q0 338 27.5 469t88.5 190q64 58 228 58h426q162 0 225 -58q55 -53 77.5 -131t26.5 -246h-157q-8 217 -58 265q-30 30 -123 30h-6h-397q-96 0 -131 -30q-20 -20 -31.5 -58.5t-22 -160t-10.5 -328.5t10.5 -329t21.5 -160t32 -58q35 -31 131 -31h397h11q84 0 118 31 q61 61 62 371v45h-389v139h551v-115q0 -272 -26 -383.5t-87 -169.5q-63 -57 -225 -57h-428q-162 0 -226 57q-61 59 -88.5 190.5t-27.5 469.5z" />
<glyph unicode="H" horiz-adv-x="1505" d="M195 0v1434h161v-621h793v621h162v-1434h-162v674h-793v-674h-161z" />
<glyph unicode="I" horiz-adv-x="565" d="M203 0v1434h162v-1434h-162z" />
<glyph unicode="J" horiz-adv-x="1167" d="M76 457h155q8 -238 54 -281q37 -37 131 -37h147q162 0 199 37q31 33 46 115t15 278v865h162v-852q0 -248 -23.5 -351.5t-80.5 -162.5q-41 -39 -107.5 -54.5t-191.5 -15.5h-176q-172 0 -238 63q-49 49 -68.5 132t-23.5 264z" />
<glyph unicode="K" horiz-adv-x="1284" d="M195 0v1434h161v-621h160l533 621h190l-592 -680l604 -754h-194l-537 674h-164v-674h-161z" />
<glyph unicode="L" horiz-adv-x="1148" d="M195 0v1434h161v-1295h729v-139h-890z" />
<glyph unicode="M" horiz-adv-x="1812" d="M195 0v1434h245q35 0 49.5 -12.5t24.5 -45.5l383 -1175h25l381 1175q10 33 24 45.5t49 12.5h240v-1434h-164v1282h-25l-409 -1227q-10 -35 -22.5 -45t-45.5 -10h-96q-33 0 -45 10t-23 45l-409 1239h-25v-1294h-157z" />
<glyph unicode="N" horiz-adv-x="1486" d="M195 0v1434h178q37 0 55 -11.5t35 -46.5l645 -1138h27v1196h157v-1434h-166q-39 0 -57 11.5t-35 43.5l-657 1170h-25v-1225h-157z" />
<glyph unicode="O" d="M156 717q0 338 28.5 469t89.5 190q64 58 226 58h442q166 0 225 -58q63 -57 91 -188t28 -471t-27.5 -471t-91.5 -189q-59 -57 -225 -57h-442q-162 0 -226 57q-61 59 -89.5 190.5t-28.5 469.5zM319 717q0 -481 66 -547q35 -31 131 -31h410h10q86 0 121 31q20 18 32.5 57 t22.5 161t10 329t-10 328.5t-22.5 160.5t-32.5 58q-34 30 -125 30h-6h-410q-96 0 -131 -30q-66 -66 -66 -547z" />
<glyph unicode="P" horiz-adv-x="1296" d="M195 0v1434h682q162 0 219 -58q51 -47 77.5 -129t26.5 -250q0 -162 -26.5 -242.5t-77.5 -127.5q-57 -57 -219 -58h-521v-569h-161zM356 709h486q104 0 137 30q57 53 57 262t-57 263q-32 30 -131 30h-6h-486v-585z" />
<glyph unicode="Q" d="M156 717q0 338 28.5 469t89.5 190q63 57 226 58h442q166 0 225 -58q63 -57 91 -188t28 -471t-27.5 -471t-91.5 -189q-59 -57 -211 -57l76 -221h-153l-76 221h-303q-162 0 -226 57q-61 59 -89.5 190.5t-28.5 469.5zM319 717q0 -481 66 -547q35 -31 131 -31h240l-105 293 h156l100 -293h19q96 0 131 31q20 18 32.5 57t22.5 161t10 329t-10 328.5t-22.5 160.5t-32.5 58q-34 30 -125 30h-6h-410q-96 0 -131 -30q-66 -66 -66 -547z" />
<glyph unicode="R" horiz-adv-x="1390" d="M195 0v1434h725q150 0 210 -60q45 -45 68 -118.5t23 -219.5q0 -178 -49.5 -251.5t-163.5 -98.5v-2q113 -27 153.5 -83t48.5 -220q10 -276 23 -381h-160q-20 133 -26 377q-4 166 -52 207q-41 39 -159 39h-480v-623h-161zM356 758h521q90 0 124 35q57 57 58 235 q0 182 -55 238q-28 28 -117 28h-6h-525v-536z" />
<glyph unicode="S" horiz-adv-x="1363" d="M150 432h157q2 -143 10.5 -192.5t28.5 -69.5q31 -31 115 -31h440q88 0 119 33q39 39 39 221q0 100 -7.5 139t-29.5 62q-33 29 -127 37l-449 41q-154 14 -210 71q-39 39 -53.5 101.5t-14.5 199.5q0 133 18.5 207t65.5 119q59 63 207 64h444q154 0 211 -60 q43 -43 59.5 -112.5t18.5 -249.5h-160q-2 215 -37 252q-32 30 -109 30h-5h-398q-86 0 -118 -32q-37 -39 -37 -215q0 -94 7 -132t30 -61q27 -27 127 -35l448 -41q152 -14 209 -71q39 -39 54.5 -104.5t15.5 -207t-18.5 -214t-65.5 -118.5q-63 -63 -209 -63h-490 q-152 0 -209 59q-43 43 -59 115t-18 258z" />
<glyph unicode="T" horiz-adv-x="1187" d="M47 1294v140h1096v-140h-467v-1294h-162v1294h-467z" />
<glyph unicode="U" horiz-adv-x="1480" d="M195 584v850h161v-879q0 -195 14.5 -268.5t47.5 -106.5q39 -39 200 -39h248q160 0 199 39q31 33 45 105.5t14 269.5v879h160v-850q0 -246 -22.5 -348.5t-79.5 -161.5q-76 -74 -297 -74h-297q-217 0 -291 74q-57 57 -79.5 158.5t-22.5 351.5z" />
<glyph unicode="V" horiz-adv-x="1302" d="M55 1434h174l406 -1282h41l405 1282h164l-452 -1389q-10 -33 -24.5 -42t-55.5 -9h-125q-39 0 -55.5 10t-24.5 41z" />
<glyph unicode="W" horiz-adv-x="1931" d="M78 1434h170l266 -1241h33l293 1185q8 37 25.5 49.5t60.5 12.5h90q43 0 59.5 -12.5t24.5 -49.5l293 -1185h30l269 1241h161l-317 -1391q-6 -31 -21.5 -40t-58.5 -9h-100q-41 0 -56.5 9t-23.5 42l-293 1188h-33l-293 -1188q-6 -31 -21 -41t-58 -10h-101q-43 0 -58.5 9 t-21.5 40z" />
<glyph unicode="X" horiz-adv-x="1280" d="M47 0l498 729l-484 705h189l391 -572h16l387 572h179l-482 -703l496 -731h-180l-414 600h-14l-408 -600h-174z" />
<glyph unicode="Y" horiz-adv-x="1206" d="M25 1434h176l399 -701h12l396 701h174l-496 -865v-569h-162v567z" />
<glyph unicode="Z" horiz-adv-x="1265" d="M102 0v104l865 1190h-824v140h1031v-105l-867 -1190h856v-139h-1061z" />
<glyph unicode="[" horiz-adv-x="868" d="M209 -307v1741h528v-129h-383v-1483h383v-129h-528z" />
<glyph unicode="\" horiz-adv-x="974" d="M57 1454h150l835 -1782h-149z" />
<glyph unicode="]" horiz-adv-x="868" d="M131 -178h383v1483h-383v129h531v-1741h-531v129z" />
<glyph unicode="^" horiz-adv-x="1052" d="M174 979v10l303 451h96l304 -451v-10h-111l-242 340l-241 -340h-109z" />
<glyph unicode="_" horiz-adv-x="1024" d="M-4 -133h1032v-123h-1032v123z" />
<glyph unicode="`" horiz-adv-x="1024" d="M260 1473v10h238l188 -232v-10h-137z" />
<glyph unicode="a" horiz-adv-x="1171" d="M123 297q0 182 67 250q39 39 103.5 56.5t212.5 17.5q186 0 346 -27v182q0 135 -31 166q-27 27 -114 27h-226q-96 0 -127 -31q-35 -37 -37 -168h-147q2 197 70 266q59 59 202 60h295q152 0 207 -58q35 -35 46 -87t11 -165v-786h-149v139q-109 -86 -163 -113.5t-136 -27.5 h-160q-145 0 -205 61q-65 60 -65 233v5zM272 317q0 -129 33 -159.5t119 -30.5h154q72 0 128 20.5t146 77.5v279h-356q-92 0 -129 -8.5t-58 -28.5q-37 -37 -37 -150z" />
<glyph unicode="b" horiz-adv-x="1222" d="M176 0v1475h152v-525q113 92 170 120t141 28h127q166 0 233 -68q49 -51 67.5 -146.5t18.5 -334.5q0 -242 -18 -337t-68 -146q-68 -68 -233 -68h-127q-84 0 -143.5 28.5t-167.5 118.5v-145h-152zM328 233q88 -55 146 -77.5t126 -22.5h135q111 0 150 39q29 29 39 102.5 t10 274.5t-10.5 273.5t-38.5 101.5q-39 39 -150 39h-139q-68 0 -125 -21.5t-143 -77.5v-631z" />
<glyph unicode="c" horiz-adv-x="1130" d="M137 549q0 238 20.5 335t73.5 150q61 61 224 62h286q141 0 197 -56q39 -39 56.5 -104.5t19.5 -198.5h-148q-6 160 -41 195q-29 29 -114 29h-240q-102 0 -133 -31q-27 -27 -38 -100.5t-11 -280.5q0 -209 11 -282.5t38 -100.5q33 -31 133 -31h240q88 0 118 29q37 37 41 207 h148q-4 -145 -21.5 -210t-58.5 -106q-55 -55 -195 -55h-288q-162 0 -224 61q-53 53 -73.5 150.5t-20.5 337.5z" />
<glyph unicode="d" horiz-adv-x="1226" d="M137 549q0 240 18.5 335t67.5 146q68 68 234 68h131q82 0 140 -29t171 -119v525h152v-1475h-152v145q-113 -90 -171 -118.5t-140 -28.5h-131q-166 0 -234 68q-49 51 -67.5 146t-18.5 337zM289 549q0 -199 10 -272.5t41 -104.5q43 -39 147 -39h140q68 0 125 22.5t147 80.5 v624q-88 57 -144.5 80t-123.5 23h-144q-109 0 -147 -39q-31 -31 -41 -103.5t-10 -271.5z" />
<glyph unicode="e" horiz-adv-x="1177" d="M137 549q0 238 20.5 335t73.5 150q61 61 224 62h274q162 0 221 -60q53 -55 73.5 -150t20.5 -327v-35q1 -24 -24 -24h-731q2 -176 13 -244t36 -92q31 -31 131 -31h272q88 0 119 31q35 35 37 172h147q-2 -123 -18 -180.5t-57 -98.5q-57 -57 -199 -57h-315q-162 0 -224 61 q-53 53 -73.5 150.5t-20.5 337.5zM289 621h606q-2 160 -13.5 223t-37.5 88q-33 33 -131 33h-244q-98 0 -133 -35q-25 -25 -35 -85.5t-12 -223.5z" />
<glyph unicode="f" horiz-adv-x="722" d="M72 965v131h188v80q0 184 59 241q57 57 170 58h168v-129h-139q-57 0 -80 -23q-26 -26 -26 -135v-8v-84h247v-131h-245v-965h-154v965h-188z" />
<glyph unicode="g" horiz-adv-x="1224" d="M139 598q0 209 18.5 295t67.5 137q68 68 234 68h127q84 0 142 -29t169 -119v146h152v-1071q0 -125 -15.5 -181.5t-54.5 -95.5q-54 -55 -191 -55h-387q-119 0 -176 53q-57 57 -59 213h151q2 -88 33 -115q22 -24 95 -24h6h309q78 0 104 26q33 33 33 162v234 q-111 -90 -170 -118t-141 -28h-127q-166 0 -234 68q-49 51 -67.5 138t-18.5 296zM291 598q0 -176 10 -236.5t41 -91.5q37 -41 147 -41h142q68 0 124 22.5t142 78.5v530q-88 57 -146.5 81t-125.5 24h-136q-109 0 -147 -39q-31 -31 -41 -92.5t-10 -235.5z" />
<glyph unicode="h" horiz-adv-x="1218" d="M176 0v1475h152v-525q113 90 170 119t141 29h160q131 0 190 -58q57 -59 58 -219v-821h-152v811q0 88 -33 121q-31 31 -123 31h-143q-68 0 -124 -21.5t-144 -77.5v-864h-152z" />
<glyph unicode="i" horiz-adv-x="501" d="M162 1298v197h180v-197h-180zM176 0v1096h152v-1096h-152z" />
<glyph unicode="j" horiz-adv-x="524" d="M-8 -178v-123q61 -10 110 -10q129 0 187 57q61 61 61 231v1119h-151v-1147q0 -74 -27 -105q-26 -22 -85 -22h-5h-90zM184 1298v197h181v-197h-181z" />
<glyph unicode="k" horiz-adv-x="1069" d="M176 0v1475h152v-859h112l404 480h182l-467 -535l483 -561h-190l-416 489h-108v-489h-152z" />
<glyph unicode="l" horiz-adv-x="501" d="M176 0v1475h152v-1475h-152z" />
<glyph unicode="m" horiz-adv-x="1855" d="M176 0v1096h152v-146q113 90 170 119t141 29h119q131 0 188 -58q37 -37 49 -98q121 96 179.5 126t142.5 30h119q131 0 190 -58q57 -59 57 -219v-821h-151v811q0 88 -33 121q-31 31 -123 31h-102q-68 0 -126 -21.5t-144 -77.5q2 -14 2 -43v-821h-152v811q0 88 -33 121 q-31 31 -125 31h-100q-68 0 -124 -21.5t-144 -77.5v-864h-152z" />
<glyph unicode="n" horiz-adv-x="1218" d="M176 0v1096h152v-146q113 90 170 119t141 29h160q131 0 190 -58q57 -59 58 -219v-821h-152v811q0 88 -33 121q-31 31 -123 31h-143q-68 0 -124 -21.5t-144 -77.5v-864h-152z" />
<glyph unicode="o" horiz-adv-x="1196" d="M137 549q0 238 20.5 335t73.5 150q61 61 224 62h286q162 0 222 -62q55 -53 75.5 -149.5t20.5 -336t-20.5 -336.5t-75.5 -151q-59 -61 -222 -61h-286q-162 0 -224 61q-53 53 -73.5 150.5t-20.5 337.5zM289 549q0 -209 11 -282.5t38 -100.5q33 -31 133 -31h254 q100 0 131 31q27 27 39 101.5t12 281.5q0 205 -12 279.5t-39 101.5q-29 31 -131 31h-254q-102 0 -133 -31q-27 -27 -38 -100.5t-11 -280.5z" />
<glyph unicode="p" horiz-adv-x="1222" d="M176 -307v1403h152v-146q113 92 170 120t141 28h127q166 0 233 -68q49 -51 67.5 -146.5t18.5 -334.5q0 -242 -18 -337t-68 -146q-68 -68 -233 -68h-127q-84 0 -143.5 28.5t-167.5 118.5v-452h-152zM328 233q88 -55 146 -77.5t126 -22.5h135q109 0 148 39q31 31 41 102.5 t10 274.5q0 201 -10.5 273.5t-40.5 101.5q-37 39 -148 39h-139q-68 0 -125 -21.5t-143 -77.5v-631z" />
<glyph unicode="q" horiz-adv-x="1222" d="M137 549q0 240 18.5 335t67.5 146q68 68 234 68h129q82 0 140 -29t171 -119v146h152v-1403h-152v454q-113 -92 -171 -120.5t-140 -28.5h-129q-166 0 -234 68q-49 51 -67.5 146t-18.5 337zM289 549q0 -199 10 -272.5t41 -104.5q43 -39 147 -39h136q68 0 126 22.5t148 80.5 v626q-86 55 -143.5 78t-124.5 23h-142q-109 0 -147 -39q-31 -31 -41 -103.5t-10 -271.5z" />
<glyph unicode="r" horiz-adv-x="794" d="M176 0v1096h152v-178q104 111 156.5 145.5t117.5 34.5h131v-156h-145q-68 0 -122 -18.5t-138 -75.5v-848h-152z" />
<glyph unicode="s" horiz-adv-x="1128" d="M131 332h139q4 -152 33 -180q25 -25 92 -25h340q63 0 90 27q31 31 31 147q0 115 -27 137q-23 27 -104 31l-348 35q-135 14 -176 55q-31 31 -43.5 81t-12.5 155q0 184 68 252q49 49 162 49h379q121 0 168 -47q35 -35 48 -90.5t15 -186.5h-139q-4 143 -33 172 q-25 25 -92 25h-313q-61 0 -86 -25q-33 -33 -33 -141.5t24 -130.5q23 -25 107 -33l352 -35q131 -10 174 -53q53 -54 53 -242q0 -193 -67 -260q-49 -49 -162 -49h-401q-127 0 -174 47q-37 37 -49.5 91.5t-14.5 193.5z" />
<glyph unicode="t" horiz-adv-x="770" d="M49 965v131h189v274h153v-274h301v-131h-301v-715q0 -76 23 -96q18 -23 96 -23h180v-98l-96 -25q-78 -16 -148 -16q-111 0 -161 51q-47 47 -47 172v750h-189z" />
<glyph unicode="u" horiz-adv-x="1218" d="M172 274v822h152v-811q0 -88 32 -119q33 -33 125 -33h144q68 0 124 20.5t144 77.5v865h151v-1096h-151v147q-113 -92 -171 -120.5t-142 -28.5h-160q-131 0 -189 59q-59 57 -59 217z" />
<glyph unicode="v" horiz-adv-x="1052" d="M47 1096h166l305 -934h27l303 934h158l-365 -1051q-10 -31 -23.5 -41t-44.5 -10h-94q-31 0 -44 10t-23 41z" />
<glyph unicode="w" horiz-adv-x="1540" d="M63 1096h158l197 -934h24l215 882q8 31 21.5 42.5t46.5 11.5h98q31 0 45.5 -11.5t22.5 -42.5l219 -882h25l194 934h148l-242 -1049q-6 -31 -20.5 -42t-45.5 -11h-108q-31 0 -44 11t-22 42l-215 871h-20l-215 -871q-10 -53 -66 -53h-108q-31 0 -44.5 10t-21.5 43z" />
<glyph unicode="x" horiz-adv-x="1042" d="M37 0l387 557l-381 539h176l299 -428h19l292 428h168l-381 -543l390 -553h-177l-309 440h-16l-301 -440h-166z" />
<glyph unicode="y" horiz-adv-x="1089" d="M51 1096h172l330 -889h14l301 889h162l-461 -1284q-25 -68 -64.5 -95.5t-113.5 -27.5q-68 0 -211 14v123h199q43 0 61 47l45 123z" />
<glyph unicode="z" horiz-adv-x="1032" d="M90 0v90l651 871h-622v135h825v-84l-657 -877h651v-135h-848z" />
<glyph unicode="{" horiz-adv-x="909" d="M137 516v94q184 20 228 58q25 25 24 75q0 29 -18.5 147t-18.5 177q0 74 52.5 150.5t220.5 236.5h116q-141 -166 -188 -242.5t-47 -126.5q0 -53 18.5 -167.5t18.5 -155.5q0 -88 -42 -130t-169 -67v-4q125 -25 168 -68.5t43 -134.5q0 -39 -18.5 -154.5t-18.5 -162.5 q0 -49 47 -126t188 -243h-116q-168 160 -220.5 237t-52.5 150q0 55 18.5 174t18.5 156q0 45 -22 68q-40 39 -230 59z" />
<glyph unicode="|" horiz-adv-x="653" d="M258 -328v1925h137v-1925h-137z" />
<glyph unicode="}" horiz-adv-x="909" d="M168 -328q141 166 188 243t47 126q0 47 -18 162.5t-18 154.5q0 90 43 134.5t165 68.5v4q-125 25 -166.5 67t-41.5 130q0 41 18 155.5t18 167.5q0 49 -47 126t-188 243h117q168 -160 220 -236.5t52 -150.5q0 -59 -18.5 -177t-18.5 -147q0 -51 25 -75q37 -37 225 -58v-94 q-193 -20 -227 -59q-23 -20 -23 -68q0 -37 18.5 -155.5t18.5 -174.5q0 -74 -52 -150.5t-220 -236.5h-117z" />
<glyph unicode="~" horiz-adv-x="909" d="M156 532v136q0 59 22.5 81.5t63.5 22.5h22q49 0 129 -33l238 -92l45 123h78v-135q0 -59 -22.5 -82t-63.5 -23h-21q-47 0 -131 33l-237 92l-43 -123h-80z" />
<glyph unicode="&#xa1;" horiz-adv-x="681" d="M244 0v76l55 948h68l71 -948v-76h-194zM248 1227v207h184v-207h-184z" />
<glyph unicode="&#xa2;" horiz-adv-x="1144" d="M150 723q0 225 20 319.5t74 147.5q63 63 223 63h61v187h127v-187h82q139 0 197 -57q41 -39 58.5 -103.5t19.5 -199.5h-144q-8 166 -41 199q-29 29 -118 28h-60v-796h62q92 0 120 30q37 33 39 209h144q-2 -147 -19.5 -210.5t-58.5 -104.5q-57 -57 -197 -58h-84v-196h-127 v196h-61q-160 0 -223 64q-53 53 -73.5 147.5t-20.5 321.5zM299 723q0 -195 11 -267.5t38 -99.5q33 -33 131 -32h56v796h-56q-98 0 -131 -30q-27 -29 -38 -100.5t-11 -266.5z" />
<glyph unicode="&#xa3;" horiz-adv-x="1368" d="M121 0v139h198v463h-196v133h196v260q0 162 20.5 242t70.5 129q39 39 99 54.5t177 15.5h207q178 0 242 -64q47 -49 65.5 -123.5t20.5 -249.5h-156q-4 217 -51 261q-35 37 -144 36h-184q-121 0 -158 -36q-49 -49 -49 -250v-275h430v-133h-430v-463h750v-139h-1108z" />
<glyph unicode="&#xa5;" horiz-adv-x="1351" d="M106 1434h177l389 -701h12l385 701h170l-440 -789h321v-133h-364v-512h-162v512h-371v133h324z" />
<glyph unicode="&#xa7;" horiz-adv-x="1341" d="M125 735.5q0 153.5 61 214.5q47 47 146 49q-29 55 -29 160q0 147 68 215q61 61 215 62h202q133 0 187 -54q37 -39 52 -93t17 -185h-147q-2 139 -37 174q-27 27 -104 27h-158q-84 0 -113 -29q-31 -31 -30 -127q0 -80 30 -115q31 -27 111 -35l385 -34q135 -10 182 -58 q55 -59 56 -211q0 -147 -62 -213q-49 -49 -147 -51q31 -59 30 -160q0 -145 -67 -213q-61 -61 -215 -61h-205q-129 0 -186 51q-37 39 -51.5 94.5t-16.5 186.5h147q2 -141 35 -174q29 -29 105 -29h159q82 0 113 30.5t31 127.5q0 80 -31 114q-31 27 -113 35l-383 35 q-135 10 -182 57q-55 56 -55 209.5zM266 741q0 -90 27 -118q27 -27 119 -33l520 -43q20 -2 37 -2q53 0 73 20q35 35 35 125t-28 121q-25 27 -117 33l-522 43q-18 2 -35 2q-53 0 -74 -21q-35 -35 -35 -127z" />
<glyph unicode="&#xa8;" horiz-adv-x="1024" d="M238 1278v195h170v-195h-170zM616 1278v195h170v-195h-170z" />
<glyph unicode="&#xa9;" horiz-adv-x="1615" d="M182 716.5q0 471.5 135 610.5q53 55 126 81t219 26h290q145 0 219 -26t127 -81q133 -137 133.5 -610t-133.5 -611q-53 -55 -126.5 -80.5t-219.5 -25.5h-290q-145 0 -218.5 25.5t-126.5 80.5q-135 139 -135 610.5zM240 717q0 -453 120 -574q47 -49 112 -70.5t200 -21.5 h272q135 0 199.5 20.5t109.5 69.5q123 127 123 576q0 451 -123 573q-47 49 -111.5 70.5t-197.5 21.5h-272q-135 0 -200.5 -20.5t-111.5 -69.5q-120 -124 -120 -575zM510 727q0 188 15.5 259t50 103.5t124.5 32.5h224q90 0 123 -32q55 -51 57 -213h-94q-2 115 -31 143 q-16 16 -72 16h-190q-57 0 -74 -18q-35 -31 -35 -291q0 -256 35 -291q18 -18 74 -18h190q53 0 72 18q29 29 31 156h96q-4 -104 -16.5 -151.5t-42.5 -73.5q-33 -33 -123 -33h-224q-92 0 -125 31q-35 33 -50 104.5t-15 257.5z" />
<glyph unicode="&#xaa;" horiz-adv-x="983" d="M168 864q0 139 49 185q55 55 221 55q135 0 250 -21v123q0 88 -18 109q-16 16 -78 16h-170q-59 0 -78 -18q-23 -23 -25 -115h-116q2 143 51 193q43 43 147 43h209q109 0 150 -39q43 -45 43 -185v-565h-115v98q-74 -61 -116 -80.5t-99 -19.5h-102q-106 0 -154 47 q-49 49 -49 174zM170 362v103h641v-103h-641zM287 879q0 -88 22 -111q27 -23 86 -23h97q53 0 93 14.5t103 55.5v195h-250q-106 0 -129 -23q-23 -25 -22 -108z" />
<glyph unicode="&#xab;" horiz-adv-x="1175" d="M123 498v100l315 328h174l-350 -377l352 -377h-176zM557 498v100l315 328h175l-351 -377l353 -377h-177z" />
<glyph unicode="&#xad;" horiz-adv-x="835" d="M129 575v154h578v-154h-578z" />
<glyph unicode="&#xae;" horiz-adv-x="929" d="M114.5 1038q0.5 256 75.5 336q59 59 189 60h172q129 0 188 -60q76 -80 76 -336t-76 -336q-59 -59 -188 -59h-172q-129 0 -189 59q-76 80 -75.5 336zM158 1039q0 -246 63 -310q47 -47 160 -47h168q113 0 160 47q63 63 63 309t-63 310q-47 47 -160 47h-168q-113 0 -160 -47 q-63 -63 -63 -309zM317 831v433h218q47 0 65 -21q27 -27 27 -100q0 -92 -62 -107v-2q33 -6 45.5 -22.5t14.5 -63.5q4 -98 8 -117h-58q-8 33 -8 111q0 47 -12 59q-14 12 -51 13h-131v-183h-56zM373 1061h143q29 0 37 8q18 19 18 70q0 45 -16 67q-8 8 -37 8h-145v-153z" />
<glyph unicode="&#xaf;" horiz-adv-x="1024" d="M213 1262v124h598v-124h-598z" />
<glyph unicode="&#xb0;" horiz-adv-x="854" d="M133 1100q0 127 15.5 186.5t50.5 95.5q47 51 157 52h142q111 0 157 -52q35 -35 50.5 -94t15.5 -188t-15.5 -188.5t-50.5 -94.5q-47 -51 -157 -51h-142q-111 0 -157 51q-35 37 -50.5 96.5t-15.5 186.5zM252 1099.5q0 -163.5 33 -200.5q25 -25 84 -25h116q59 0 84 25 q33 37 33 201t-33 200q-25 25 -84 25h-116q-59 0 -84 -25q-33 -37 -33 -200.5z" />
<glyph unicode="&#xb1;" horiz-adv-x="1052" d="M127 219v135h799v-135h-799zM127 799v135h332v334h135v-334h332v-135h-332v-332h-135v332h-332z" />
<glyph unicode="&#xb2;" horiz-adv-x="1316" d="M162 0v178q0 152 19.5 223.5t70.5 124.5q59 59 197 115l403 160q92 39 123 82q37 53 37 190t-47 180q-37 39 -144 39h-291q-96 0 -133 -39q-41 -43 -43 -241h-164q2 160 21.5 234.5t64.5 121.5q68 66 234 66h352q160 0 225 -66q90 -90 91 -295q0 -117 -16.5 -177 t-55.5 -110q-49 -61 -209 -127l-403 -159q-92 -39 -125 -76q-49 -55 -50 -207v-76h871v-141h-1028z" />
<glyph unicode="&#xb3;" horiz-adv-x="1339" d="M143 446h166q8 -227 53 -272q39 -35 142 -35h313q106 0 141 37q53 49 54 232q0 174 -51 229q-46 39 -144 39h-313v137h299q104 0 143 41q53 49 53 201q0 156 -53 205q-33 35 -139 34h-293q-104 0 -139 -34q-47 -43 -56 -246h-163q4 260 98 354q70 66 235 66h357 q168 0 233 -66q92 -92 92 -301q0 -266 -186 -322v-2q98 -20 148.5 -100t50.5 -240q0 -246 -92 -337q-66 -66 -234 -66h-379q-170 0 -235 66q-53 51 -75 139t-26 241z" />
<glyph unicode="&#xb4;" horiz-adv-x="1024" d="M287 1241v10l188 232h238v-10l-289 -232h-137z" />
<glyph unicode="&#xb6;" horiz-adv-x="1128" d="M106 1006q0 162 27 241.5t78 128.5q57 57 221 58h502v-1434h-162v569h-340q-154 0 -211 58q-55 51 -85 132t-30 247z" />
<glyph unicode="&#xb7;" horiz-adv-x="493" d="M150 545v211h194v-211h-194z" />
<glyph unicode="&#xb8;" horiz-adv-x="1024" d="M311 -324h215q43 0 58 15q16 14 16 55q0 43 -16 57q-14 14 -58 15h-90v90h111q96 0 127 -31q39 -39 39 -131t-39 -131q-33 -33 -131 -33h-142l-90 66v28z" />
<glyph unicode="&#xb9;" horiz-adv-x="788" d="M66 1298l335 138h136v-1436h-162v1272l-262 -103z" />
<glyph unicode="&#xba;" horiz-adv-x="1036" d="M178 362v103h686v-103h-686zM180 1040q0 156 16.5 229.5t57.5 114.5q51 49 170 50h194q119 0 170 -50q41 -41 57.5 -114.5t16.5 -229.5q0 -158 -16.5 -231.5t-57.5 -114.5q-49 -49 -170 -49h-194q-121 0 -170 49q-41 41 -57.5 115t-16.5 231zM309 1040q0 -219 39 -262 q22 -22 96 -22h154q74 0 96 22q39 43 39 262q0 215 -39 258q-25 25 -96 25h-154q-72 0 -96 -25q-39 -43 -39 -258z" />
<glyph unicode="&#xbb;" horiz-adv-x="1175" d="M125 172l352 377l-350 377h176l315 -328v-100l-315 -326h-178zM559 172l352 377l-350 377h176l316 -328v-100l-316 -326h-178z" />
<glyph unicode="&#xbc;" horiz-adv-x="3284" d="M66 1298l335 138h136v-1436h-162v1272l-262 -103zM808 -6l519 756l469 690h131l-518 -752l-469 -694h-132zM2048 381v57q0 63 37 123l533 785q33 51 60.5 69.5t72.5 18.5h196v-920h244v-133h-244v-381h-157v381h-742zM2224 514h566v786h-35z" />
<glyph unicode="&#xbd;" horiz-adv-x="3264" d="M66 1298l335 138h136v-1436h-162v1272l-262 -103zM808 -6l519 756l469 690h131l-518 -752l-469 -694h-132zM2110 0v178q0 152 19.5 223.5t70.5 124.5q59 59 197 115l403 160q92 39 123 82q37 53 37 190t-47 180q-37 39 -144 39h-291q-96 0 -133 -39q-41 -43 -43 -241 h-164q2 160 21.5 234.5t64.5 121.5q68 66 234 66h352q160 0 225 -66q90 -90 91 -295q0 -117 -16.5 -177t-55.5 -110q-49 -61 -209 -127l-403 -159q-92 -39 -125 -76q-49 -55 -50 -207v-76h871v-141h-1028z" />
<glyph unicode="&#xbe;" horiz-adv-x="3835" d="M143 446h166q8 -227 53 -272q39 -35 142 -35h313q106 0 141 37q53 49 54 232q0 174 -51 229q-46 39 -144 39h-313v137h299q104 0 143 41q53 49 53 201q0 156 -53 205q-33 35 -139 34h-293q-104 0 -139 -34q-47 -43 -56 -246h-163q4 260 98 354q70 66 235 66h357 q168 0 233 -66q92 -92 92 -301q0 -266 -186 -322v-2q98 -20 148.5 -100t50.5 -240q0 -246 -92 -337q-66 -66 -234 -66h-379q-170 0 -235 66q-53 51 -75 139t-26 241zM1359 -6l519 756l469 690h131l-518 -752l-469 -694h-132zM2599 381v57q0 63 37 123l533 785 q33 51 60.5 69.5t72.5 18.5h196v-920h244v-133h-244v-381h-157v381h-742zM2775 514h566v786h-35z" />
<glyph unicode="&#xbf;" horiz-adv-x="1110" d="M113 350q0 125 15 181.5t62 103.5q33 35 213 115q80 37 111 67q39 39 43 197h123v-60q0 -106 -11.5 -157.5t-43.5 -83.5q-41 -41 -166 -97q-117 -49 -146 -77q-25 -25 -33 -61t-8 -122q0 -143 39 -186q33 -29 113 -29h281q82 0 110 29q35 31 37 260h158 q0 -178 -14.5 -253t-57.5 -118q-59 -59 -211 -59h-326q-150 0 -213 63q-76 76 -75 287zM526 1227v207h185v-207h-185z" />
<glyph unicode="&#xc0;" horiz-adv-x="1329" d="M55 0l467 1386q10 33 24.5 43.5t53.5 10.5h129q37 0 52.5 -10.5t25.5 -43.5l467 -1386h-174l-142 438h-600l-141 -438h-162zM332 1800v10h237l189 -231v-10h-137zM403 575h510l-233 721h-43z" />
<glyph unicode="&#xc1;" horiz-adv-x="1329" d="M55 0l467 1386q10 33 24.5 43.5t53.5 10.5h129q37 0 52.5 -10.5t25.5 -43.5l467 -1386h-174l-142 438h-600l-141 -438h-162zM403 575h510l-233 721h-43zM563 1569v10l189 231h237v-10l-289 -231h-137z" />
<glyph unicode="&#xc2;" horiz-adv-x="1329" d="M55 0l467 1386q10 33 24.5 43.5t53.5 10.5h129q37 0 52.5 -10.5t25.5 -43.5l467 -1386h-174l-142 438h-600l-141 -438h-162zM336 1573v10l237 244h172l238 -244v-10h-121l-205 147l-202 -147h-119zM403 575h510l-233 721h-43z" />
<glyph unicode="&#xc3;" horiz-adv-x="1329" d="M55 0l467 1386q10 33 24.5 43.5t53.5 10.5h129q37 0 52.5 -10.5t25.5 -43.5l467 -1386h-174l-142 438h-600l-141 -438h-162zM360 1587v135q0 59 21 82q18 23 63 23h25q41 0 125 -31l242 -94l43 123h79v-135q0 -59 -20 -82q-18 -23 -64 -23h-24q-41 0 -125 31l-242 94 l-43 -123h-80zM403 575h510l-233 721h-43z" />
<glyph unicode="&#xc4;" horiz-adv-x="1329" d="M55 0l467 1386q10 33 24.5 43.5t53.5 10.5h129q37 0 52.5 -10.5t25.5 -43.5l467 -1386h-174l-142 438h-600l-141 -438h-162zM385 1606v194h170v-194h-170zM403 575h510l-233 721h-43zM764 1606v194h170v-194h-170z" />
<glyph unicode="&#xc5;" horiz-adv-x="1320" d="M51 0l459 1360q-45 8 -72 39q-49 49 -49 157.5t49 159.5q39 41 135 41h172q96 0 136 -41q49 -51 49 -159.5t-49 -157.5q-25 -29 -70 -37l459 -1362h-174l-142 438h-600l-141 -438h-162zM399 575h510l-235 725h-39zM496 1556q0 -70 22 -96q16 -16 68 -16h147q51 0 68 16 q23 27 22 96q0 74 -22 97q-19 18 -68 18h-147q-49 0 -68 -18q-23 -23 -22 -97z" />
<glyph unicode="&#xc6;" horiz-adv-x="2000" d="M20 0l785 1378q18 33 35.5 44.5t54.5 11.5h985v-140h-782v-481h669v-137h-669v-537h776v-139h-936v477h-483l-269 -477h-166zM530 612h408v691h-16z" />
<glyph unicode="&#xc7;" horiz-adv-x="1374" d="M156 717q0 338 28.5 469t89.5 190q63 57 226 58h424q162 0 225 -58q53 -51 77.5 -133t28.5 -256h-159q-6 225 -58 277q-35 31 -131 30h-391q-96 0 -131 -30q-66 -66 -66 -547t66 -547q35 -31 131 -31h391h11q86 0 120 31q51 51 60 299h159q-8 -195 -31.5 -277.5 t-76.5 -134.5q-63 -57 -225 -57h-424q-162 0 -226 57q-61 59 -89.5 190.5t-28.5 469.5zM492 -324h215q43 0 57 15q16 14 16 55q0 43 -16 57q-14 14 -57 15h-91v90h111q96 0 127 -31q39 -39 39 -131t-39 -131q-33 -33 -131 -33h-141l-90 66v28z" />
<glyph unicode="&#xc8;" horiz-adv-x="1253" d="M195 0v1434h952v-140h-791v-481h678v-137h-678v-537h785v-139h-946zM340 1800v10h238l188 -231v-10h-137z" />
<glyph unicode="&#xc9;" horiz-adv-x="1253" d="M195 0v1434h952v-140h-791v-481h678v-137h-678v-537h785v-139h-946zM571 1569v10l189 231h237v-10l-288 -231h-138z" />
<glyph unicode="&#xca;" horiz-adv-x="1253" d="M195 0v1434h952v-140h-791v-481h678v-137h-678v-537h785v-139h-946zM344 1573v10l238 244h172l237 -244v-10h-121l-204 147l-203 -147h-119z" />
<glyph unicode="&#xcb;" horiz-adv-x="1253" d="M195 0v1434h952v-140h-791v-481h678v-137h-678v-537h785v-139h-946zM393 1606v194h170v-194h-170zM772 1606v194h170v-194h-170z" />
<glyph unicode="&#xcc;" horiz-adv-x="565" d="M-45 1800v10h238l188 -231v-10h-137zM203 0v1434h162v-1434h-162z" />
<glyph unicode="&#xcd;" horiz-adv-x="565" d="M186 1569v10l189 231h237v-10l-288 -231h-138zM203 0v1434h162v-1434h-162z" />
<glyph unicode="&#xce;" horiz-adv-x="565" d="M-41 1573v10l238 244h172l237 -244v-10h-121l-204 147l-203 -147h-119zM203 0v1434h162v-1434h-162z" />
<glyph unicode="&#xcf;" horiz-adv-x="565" d="M8 1606v194h170v-194h-170zM203 0v1434h162v-1434h-162zM387 1606v194h170v-194h-170z" />
<glyph unicode="&#xd0;" d="M6 657v136h201v641h647q207 0 303 -88q70 -68 105.5 -211.5t35.5 -418t-35.5 -417.5t-105.5 -211q-96 -88 -303 -88h-647v657h-201zM369 139h485q131 0 182 51q99 93 99 525q0 436 -99 528q-33 31 -70.5 41t-111.5 10h-485v-501h331v-136h-331v-518z" />
<glyph unicode="&#xd1;" horiz-adv-x="1486" d="M195 0v1434h178q37 0 55 -11.5t35 -46.5l645 -1138h27v1196h157v-1434h-166q-39 0 -57 11.5t-35 43.5l-657 1170h-25v-1225h-157zM446 1587v135q0 59 21 82q18 23 63 23h25q41 0 125 -31l242 -94l43 123h79v-135q0 -59 -20 -82q-18 -23 -63 -23h-25q-41 0 -125 31 l-242 94l-43 -123h-80z" />
<glyph unicode="&#xd2;" d="M156 717q0 338 28.5 469t89.5 190q64 58 226 58h442q166 0 225 -58q63 -57 91 -188t28 -471t-27.5 -471t-91.5 -189q-59 -57 -225 -57h-442q-162 0 -226 57q-61 59 -89.5 190.5t-28.5 469.5zM319 717q0 -481 66 -547q35 -31 131 -31h410h10q86 0 121 31q20 18 32.5 57 t22.5 161t10 329t-10 328.5t-22.5 160.5t-32.5 58q-35 31 -131 30h-410q-96 0 -131 -30q-66 -66 -66 -547zM391 1800v10h238l188 -231v-10h-137z" />
<glyph unicode="&#xd3;" d="M156 717q0 338 28.5 469t89.5 190q64 58 226 58h442q166 0 225 -58q63 -57 91 -188t28 -471t-27.5 -471t-91.5 -189q-59 -57 -225 -57h-442q-162 0 -226 57q-61 59 -89.5 190.5t-28.5 469.5zM319 717q0 -481 66 -547q35 -31 131 -31h410h10q86 0 121 31q20 18 32.5 57 t22.5 161t10 329t-10 328.5t-22.5 160.5t-32.5 58q-35 31 -131 30h-410q-96 0 -131 -30q-66 -66 -66 -547zM623 1569v10l188 231h238v-10l-289 -231h-137z" />
<glyph unicode="&#xd4;" d="M156 717q0 338 28.5 469t89.5 190q64 58 226 58h442q166 0 225 -58q63 -57 91 -188t28 -471t-27.5 -471t-91.5 -189q-59 -57 -225 -57h-442q-162 0 -226 57q-61 59 -89.5 190.5t-28.5 469.5zM319 717q0 -481 66 -547q35 -31 131 -31h410h10q86 0 121 31q20 18 32.5 57 t22.5 161t10 329t-10 328.5t-22.5 160.5t-32.5 58q-35 31 -131 30h-410q-96 0 -131 -30q-66 -66 -66 -547zM397 1573v10l238 244h172l237 -244v-10h-120l-205 147l-203 -147h-119z" />
<glyph unicode="&#xd5;" d="M156 717q0 338 28.5 469t89.5 190q64 58 226 58h442q166 0 225 -58q63 -57 91 -188t28 -471t-27.5 -471t-91.5 -189q-59 -57 -225 -57h-442q-162 0 -226 57q-61 59 -89.5 190.5t-28.5 469.5zM319 717q0 -481 66 -547q35 -31 131 -31h410h10q86 0 121 31q20 18 32.5 57 t22.5 161t10 329t-10 328.5t-22.5 160.5t-32.5 58q-35 31 -131 30h-410q-96 0 -131 -30q-66 -66 -66 -547zM422 1587v135q0 59 20 82q18 23 64 23h24q41 0 125 -31l242 -94l43 123h80v-135q0 -59 -21 -82q-18 -23 -63 -23h-25q-41 0 -125 31l-241 94l-43 -123h-80z" />
<glyph unicode="&#xd6;" d="M156 717q0 338 28.5 469t89.5 190q64 58 226 58h442q166 0 225 -58q63 -57 91 -188t28 -471t-27.5 -471t-91.5 -189q-59 -57 -225 -57h-442q-162 0 -226 57q-61 59 -89.5 190.5t-28.5 469.5zM319 717q0 -481 66 -547q35 -31 131 -31h410h10q86 0 121 31q20 18 32.5 57 t22.5 161t10 329t-10 328.5t-22.5 160.5t-32.5 58q-35 31 -131 30h-410q-96 0 -131 -30q-66 -66 -66 -547zM446 1606v194h170v-194h-170zM825 1606v194h170v-194h-170z" />
<glyph unicode="&#xd7;" horiz-adv-x="1052" d="M172 485l258 258l-258 258l96 97l258 -260l258 260l95 -97l-258 -258l258 -258l-95 -96l-258 260l-258 -260z" />
<glyph unicode="&#xd8;" d="M156 717q0 338 28.5 469t89.5 190q64 58 226 58h442h43l53 108h150l-66 -135q23 -10 45 -31q63 -57 91 -188t28 -471t-27.5 -471t-91.5 -189q-59 -57 -225 -57h-442h-45l-52 -109h-149l63 136q-25 12 -43 30q-61 59 -89.5 190.5t-28.5 469.5zM319 717q0 -481 66 -547 l4 -6l533 1130h-406q-96 0 -131 -30q-66 -66 -66 -547zM520 139h406h10q86 0 121 31q20 18 32.5 57t22.5 161t10 329t-10 328.5t-22.5 161t-32.5 57.5l-6 6z" />
<glyph unicode="&#xd9;" horiz-adv-x="1480" d="M195 584v850h161v-879q0 -195 14.5 -268.5t47.5 -106.5q39 -39 200 -39h248q160 0 199 39q31 33 45 105.5t14 269.5v879h160v-850q0 -246 -22.5 -348.5t-79.5 -161.5q-76 -74 -297 -74h-297q-217 0 -291 74q-57 57 -79.5 158.5t-22.5 351.5zM410 1800v10h237l189 -231 v-10h-138z" />
<glyph unicode="&#xda;" horiz-adv-x="1480" d="M195 584v850h161v-879q0 -195 14.5 -268.5t47.5 -106.5q39 -39 200 -39h248q160 0 199 39q31 33 45 105.5t14 269.5v879h160v-850q0 -246 -22.5 -348.5t-79.5 -161.5q-76 -74 -297 -74h-297q-217 0 -291 74q-57 57 -79.5 158.5t-22.5 351.5zM641 1569v10l188 231h238v-10 l-289 -231h-137z" />
<glyph unicode="&#xdb;" horiz-adv-x="1480" d="M195 584v850h161v-879q0 -195 14.5 -268.5t47.5 -106.5q39 -39 200 -39h248q160 0 199 39q31 33 45 105.5t14 269.5v879h160v-850q0 -246 -22.5 -348.5t-79.5 -161.5q-76 -74 -297 -74h-297q-217 0 -291 74q-57 57 -79.5 158.5t-22.5 351.5zM414 1573v10l237 244h172 l238 -244v-10h-121l-205 147l-203 -147h-118z" />
<glyph unicode="&#xdc;" horiz-adv-x="1480" d="M195 584v850h161v-879q0 -195 14.5 -268.5t47.5 -106.5q39 -39 200 -39h248q160 0 199 39q31 33 45 105.5t14 269.5v879h160v-850q0 -246 -22.5 -348.5t-79.5 -161.5q-76 -74 -297 -74h-297q-217 0 -291 74q-57 57 -79.5 158.5t-22.5 351.5zM463 1606v194h170v-194h-170z M842 1606v194h170v-194h-170z" />
<glyph unicode="&#xdd;" horiz-adv-x="1206" d="M25 1434h176l399 -701h12l396 701h174l-496 -865v-569h-162v567zM508 1569v10l188 231h238v-10l-289 -231h-137z" />
<glyph unicode="&#xde;" horiz-adv-x="1296" d="M195 0v1434h161v-285h521q162 0 219 -57q51 -47 77.5 -129t26.5 -250q0 -162 -26.5 -243t-77.5 -128q-57 -57 -219 -57h-521v-285h-161zM356 424h486q104 0 137 31q57 53 57 262t-57 262q-33 31 -137 31h-486v-586z" />
<glyph unicode="&#xdf;" horiz-adv-x="1280" d="M80 965v131h186v37q0 186 76 262q63 63 207 63h250q154 0 213 -57q80 -80 80 -301q0 -141 -40 -207t-132 -92q129 -16 178 -95t49 -272q0 -168 -20.5 -245.5t-65.5 -122.5q-66 -66 -234 -66h-239v129h207q115 0 149 35q47 47 47 274q0 209 -45 254q-37 37 -149 37h-168 v135h131q98 0 133 35q45 45 45 201q0 152 -45 196q-33 33 -129 33h-182q-88 0 -121 -33q-43 -43 -43 -163v-1133h-152v965h-186z" />
<glyph unicode="&#xe0;" horiz-adv-x="1171" d="M123 297q0 182 67 250q39 39 103.5 56.5t212.5 17.5q186 0 346 -27v182q0 135 -31 166q-27 27 -114 27h-226q-96 0 -127 -31q-35 -37 -37 -168h-147q2 197 70 266q59 59 202 60h295q152 0 207 -58q35 -35 46 -87t11 -165v-786h-149v139q-109 -86 -163 -113.5t-136 -27.5 h-160q-145 0 -205 61q-66 61 -65 238zM272 317q0 -129 33 -159.5t119 -30.5h154q72 0 128 20.5t146 77.5v279h-356q-92 0 -129 -8.5t-58 -28.5q-37 -37 -37 -150zM272 1473v10h238l188 -232v-10h-137z" />
<glyph unicode="&#xe1;" horiz-adv-x="1171" d="M123 297q0 182 67 250q39 39 103.5 56.5t212.5 17.5q186 0 346 -27v182q0 135 -31 166q-27 27 -114 27h-226q-96 0 -127 -31q-35 -37 -37 -168h-147q2 197 70 266q59 59 202 60h295q152 0 207 -58q35 -35 46 -87t11 -165v-786h-149v139q-109 -86 -163 -113.5t-136 -27.5 h-160q-145 0 -205 61q-66 61 -65 238zM272 317q0 -129 33 -159.5t119 -30.5h154q72 0 128 20.5t146 77.5v279h-356q-92 0 -129 -8.5t-58 -28.5q-37 -37 -37 -150zM504 1241v10l188 232h238v-10l-289 -232h-137z" />
<glyph unicode="&#xe2;" horiz-adv-x="1171" d="M123 297q0 182 67 250q39 39 103.5 56.5t212.5 17.5q186 0 346 -27v182q0 135 -31 166q-27 27 -114 27h-226q-96 0 -127 -31q-35 -37 -37 -168h-147q2 197 70 266q59 59 202 60h295q152 0 207 -58q35 -35 46 -87t11 -165v-786h-149v139q-109 -86 -163 -113.5t-136 -27.5 h-160q-145 0 -205 61q-66 61 -65 238zM272 317q0 -129 33 -159.5t119 -30.5h154q72 0 128 20.5t146 77.5v279h-356q-92 0 -129 -8.5t-58 -28.5q-37 -37 -37 -150zM279 1245v10l237 244h172l238 -244v-10h-121l-205 148l-203 -148h-118z" />
<glyph unicode="&#xe3;" horiz-adv-x="1171" d="M123 297q0 182 67 250q39 39 103.5 56.5t212.5 17.5q186 0 346 -27v182q0 135 -31 166q-27 27 -114 27h-226q-96 0 -127 -31q-35 -37 -37 -168h-147q2 197 70 266q59 59 202 60h295q152 0 207 -58q35 -35 46 -87t11 -165v-786h-149v139q-109 -86 -163 -113.5t-136 -27.5 h-160q-145 0 -205 61q-66 61 -65 238zM272 317q0 -129 33 -159.5t119 -30.5h154q72 0 128 20.5t146 77.5v279h-356q-92 0 -129 -8.5t-58 -28.5q-37 -37 -37 -150zM303 1260v135q0 59 21 82q18 23 63 22h25q41 0 125 -31l241 -94l43 123h80v-135q0 -59 -20 -82 q-18 -23 -64 -23h-24q-41 0 -125 31l-242 94l-43 -122h-80z" />
<glyph unicode="&#xe4;" horiz-adv-x="1171" d="M123 297q0 182 67 250q39 39 103.5 56.5t212.5 17.5q186 0 346 -27v182q0 135 -31 166q-27 27 -114 27h-226q-96 0 -127 -31q-35 -37 -37 -168h-147q2 197 70 266q59 59 202 60h295q152 0 207 -58q35 -35 46 -87t11 -165v-786h-149v139q-109 -86 -163 -113.5t-136 -27.5 h-160q-145 0 -205 61q-66 61 -65 238zM272 317q0 -129 33 -159.5t119 -30.5h154q72 0 128 20.5t146 77.5v279h-356q-92 0 -129 -8.5t-58 -28.5q-37 -37 -37 -150zM328 1278v195h170v-195h-170zM707 1278v195h170v-195h-170z" />
<glyph unicode="&#xe5;" horiz-adv-x="1171" d="M123 297q0 182 67 250q39 39 103.5 56.5t212.5 17.5q186 0 346 -27v182q0 135 -31 166q-27 27 -114 27h-226q-96 0 -127 -31q-35 -37 -37 -168h-147q2 197 70 266q59 59 202 60h295q152 0 207 -58q35 -35 46 -87t11 -165v-786h-149v139q-109 -86 -163 -113.5t-136 -27.5 h-160q-145 0 -205 61q-66 61 -65 238zM272 317q0 -129 33 -159.5t119 -30.5h154q72 0 128 20.5t146 77.5v279h-356q-92 0 -129 -8.5t-58 -28.5q-37 -37 -37 -150zM332 1447.5q0 108.5 49 160.5q39 41 135 41h172q96 0 135 -41q49 -51 49 -160t-49 -158q-41 -43 -135 -43 h-172q-94 0 -135 43q-49 49 -49 157.5zM438 1448q0 -70 23 -96q16 -16 67 -17h148q51 0 67 17q23 27 23 96q0 74 -23 96q-18 19 -67 19h-148q-49 0 -67 -19q-23 -23 -23 -96z" />
<glyph unicode="&#xe6;" horiz-adv-x="1892" d="M127 297q0 182 68 250q39 39 103.5 56.5t211.5 17.5q199 0 346 -25v180q0 135 -31 166q-27 27 -114 27h-222q-98 0 -129 -31q-31 -35 -36 -168h-152q2 119 18.5 174t51.5 92q59 59 200 60h275q147 0 205 -58q16 -20 22 -30l25 26q61 61 221 62h254q162 0 221 -60 q53 -55 73.5 -150t20.5 -323v-39q0 -25 -24 -24h-731q2 -176 13 -244t36 -92q31 -31 131 -31h272q88 0 119 31q35 35 37 172h147q-2 -123 -18.5 -180.5t-57.5 -98.5q-57 -57 -198 -57h-314q-160 0 -221 61q-45 41 -63 105q-127 -106 -184.5 -137t-145.5 -31h-160 q-145 0 -204 61q-66 61 -66 238zM276 317q0 -129 33 -159.5t119 -30.5h154q76 0 134 22.5t154 86.5q-14 88 -14 268h-356q-92 0 -129 -8.5t-58 -28.5q-37 -37 -37 -150zM1004 621h606q-2 266 -51 311q-33 33 -132 33h-243q-98 0 -133 -35q-25 -25 -35 -85.5t-12 -223.5z" />
<glyph unicode="&#xe7;" horiz-adv-x="1130" d="M137 549q0 238 20.5 335t73.5 150q61 61 224 62h286q141 0 197 -56q39 -39 56.5 -104.5t19.5 -198.5h-148q-6 160 -41 195q-29 29 -114 29h-240q-102 0 -133 -31q-27 -27 -38 -100.5t-11 -280.5q0 -209 11 -282.5t38 -100.5q33 -31 133 -31h240q88 0 118 29q37 37 41 207 h148q-4 -145 -21.5 -210t-58.5 -106q-55 -55 -195 -55h-288q-162 0 -224 61q-53 53 -73.5 150.5t-20.5 337.5zM352 -324h215q43 0 58 15q16 14 16 55q0 43 -16 57q-14 14 -58 15h-90v90h111q96 0 127 -31q39 -39 39 -131t-39 -131q-33 -33 -131 -33h-142l-90 66v28z" />
<glyph unicode="&#xe8;" horiz-adv-x="1177" d="M137 549q0 238 20.5 335t73.5 150q61 61 224 62h274q162 0 221 -60q53 -55 73.5 -150t20.5 -327v-35q1 -24 -24 -24h-731q2 -176 13 -244t36 -92q31 -31 131 -31h272q88 0 119 31q35 35 37 172h147q-2 -123 -18 -180.5t-57 -98.5q-57 -57 -199 -57h-315q-162 0 -224 61 q-53 53 -73.5 150.5t-20.5 337.5zM268 1473v10h238l188 -232v-10h-137zM289 621h606q-2 160 -13.5 223t-37.5 88q-33 33 -131 33h-244q-98 0 -133 -35q-25 -25 -35 -85.5t-12 -223.5z" />
<glyph unicode="&#xe9;" horiz-adv-x="1177" d="M137 549q0 238 20.5 335t73.5 150q61 61 224 62h274q162 0 221 -60q53 -55 73.5 -150t20.5 -327v-35q1 -24 -24 -24h-731q2 -176 13 -244t36 -92q31 -31 131 -31h272q88 0 119 31q35 35 37 172h147q-2 -123 -18 -180.5t-57 -98.5q-57 -57 -199 -57h-315q-162 0 -224 61 q-53 53 -73.5 150.5t-20.5 337.5zM289 621h606q-2 160 -13.5 223t-37.5 88q-33 33 -131 33h-244q-98 0 -133 -35q-25 -25 -35 -85.5t-12 -223.5zM498 1241v10l188 232h238v-10l-289 -232h-137z" />
<glyph unicode="&#xea;" horiz-adv-x="1177" d="M137 549q0 238 20.5 335t73.5 150q61 61 224 62h274q162 0 221 -60q53 -55 73.5 -150t20.5 -327v-35q1 -24 -24 -24h-731q2 -176 13 -244t36 -92q31 -31 131 -31h272q88 0 119 31q35 35 37 172h147q-2 -123 -18 -180.5t-57 -98.5q-57 -57 -199 -57h-315q-162 0 -224 61 q-53 53 -73.5 150.5t-20.5 337.5zM272 1245v10l238 244h172l238 -244v-10h-121l-205 148l-203 -148h-119zM289 621h606q-2 160 -13.5 223t-37.5 88q-33 33 -131 33h-244q-98 0 -133 -35q-25 -25 -35 -85.5t-12 -223.5z" />
<glyph unicode="&#xeb;" horiz-adv-x="1177" d="M137 549q0 238 20.5 335t73.5 150q61 61 224 62h274q162 0 221 -60q53 -55 73.5 -150t20.5 -327v-35q1 -24 -24 -24h-731q2 -176 13 -244t36 -92q31 -31 131 -31h272q88 0 119 31q35 35 37 172h147q-2 -123 -18 -180.5t-57 -98.5q-57 -57 -199 -57h-315q-162 0 -224 61 q-53 53 -73.5 150.5t-20.5 337.5zM289 621h606q-2 160 -13.5 223t-37.5 88q-33 33 -131 33h-244q-98 0 -133 -35q-25 -25 -35 -85.5t-12 -223.5zM322 1278v195h170v-195h-170zM700 1278v195h170v-195h-170z" />
<glyph unicode="&#xec;" horiz-adv-x="507" d="M-74 1473v10h238l188 -232v-10h-137zM178 0v1096h152v-1096h-152z" />
<glyph unicode="&#xed;" horiz-adv-x="507" d="M158 1241v10l188 232h238v-10l-289 -232h-137zM178 0v1096h152v-1096h-152z" />
<glyph unicode="&#xee;" horiz-adv-x="507" d="M-70 1245v10l238 244h172l238 -244v-10h-121l-205 148l-203 -148h-119zM178 0v1096h152v-1096h-152z" />
<glyph unicode="&#xef;" horiz-adv-x="507" d="M-20 1278v195h170v-195h-170zM178 0v1096h152v-1096h-152zM358 1278v195h170v-195h-170z" />
<glyph unicode="&#xf0;" horiz-adv-x="1214" d="M139 498q0 203 19.5 292t74.5 142q59 61 222 61h141q82 0 139.5 -27.5t167.5 -117.5q-4 133 -24 194q-23 59 -121 187l-293 -101v119l221 74l-125 154h127l111 -115l274 94v-117l-192 -65q117 -129 145 -213q31 -84 31 -498q0 -250 -17.5 -346t-74.5 -154 q-61 -61 -224 -61h-286q-162 0 -222 61q-55 53 -74.5 142.5t-19.5 294.5zM291 498q0 -172 11 -238.5t38 -93.5q33 -31 131 -31h254q98 0 131 31q29 29 39 104.5t10 290.5v197q-90 57 -147.5 79.5t-124.5 22.5h-162q-100 0 -131 -31q-27 -27 -38 -93t-11 -238z" />
<glyph unicode="&#xf1;" horiz-adv-x="1218" d="M176 0v1096h152v-146q113 90 170 119t141 29h160q131 0 190 -58q57 -59 58 -219v-821h-152v811q0 88 -33 121q-31 31 -123 31h-143q-68 0 -124 -21.5t-144 -77.5v-864h-152zM319 1260v135q0 59 21 82q18 23 63 22h25q41 0 125 -31l242 -94l43 123h80v-135q0 -59 -21 -82 q-18 -23 -63 -23h-25q-41 0 -125 31l-242 94l-43 -122h-80z" />
<glyph unicode="&#xf2;" horiz-adv-x="1196" d="M137 549q0 238 20.5 335t73.5 150q61 61 224 62h286q162 0 222 -62q55 -53 75.5 -149.5t20.5 -336t-20.5 -336.5t-75.5 -151q-59 -61 -222 -61h-286q-162 0 -224 61q-53 53 -73.5 150.5t-20.5 337.5zM268 1473v10h238l188 -232v-10h-137zM289 549q0 -209 11 -282.5 t38 -100.5q33 -31 133 -31h254q100 0 131 31q27 27 39 101.5t12 281.5q0 205 -12 279.5t-39 101.5q-29 31 -131 31h-254q-102 0 -133 -31q-27 -27 -38 -100.5t-11 -280.5z" />
<glyph unicode="&#xf3;" horiz-adv-x="1196" d="M137 549q0 238 20.5 335t73.5 150q61 61 224 62h286q162 0 222 -62q55 -53 75.5 -149.5t20.5 -336t-20.5 -336.5t-75.5 -151q-59 -61 -222 -61h-286q-162 0 -224 61q-53 53 -73.5 150.5t-20.5 337.5zM289 549q0 -209 11 -282.5t38 -100.5q33 -31 133 -31h254 q100 0 131 31q27 27 39 101.5t12 281.5q0 205 -12 279.5t-39 101.5q-29 31 -131 31h-254q-102 0 -133 -31q-27 -27 -38 -100.5t-11 -280.5zM498 1241v10l188 232h238v-10l-289 -232h-137z" />
<glyph unicode="&#xf4;" horiz-adv-x="1196" d="M137 549q0 238 20.5 335t73.5 150q61 61 224 62h286q162 0 222 -62q55 -53 75.5 -149.5t20.5 -336t-20.5 -336.5t-75.5 -151q-59 -61 -222 -61h-286q-162 0 -224 61q-53 53 -73.5 150.5t-20.5 337.5zM272 1245v10l238 244h172l238 -244v-10h-121l-205 148l-203 -148h-119 zM289 549q0 -209 11 -282.5t38 -100.5q33 -31 133 -31h254q100 0 131 31q27 27 39 101.5t12 281.5q0 205 -12 279.5t-39 101.5q-29 31 -131 31h-254q-102 0 -133 -31q-27 -27 -38 -100.5t-11 -280.5z" />
<glyph unicode="&#xf5;" horiz-adv-x="1196" d="M137 549q0 238 20.5 335t73.5 150q61 61 224 62h286q162 0 222 -62q55 -53 75.5 -149.5t20.5 -336t-20.5 -336.5t-75.5 -151q-59 -61 -222 -61h-286q-162 0 -224 61q-53 53 -73.5 150.5t-20.5 337.5zM289 549q0 -209 11 -282.5t38 -100.5q33 -31 133 -31h254 q100 0 131 31q27 27 39 101.5t12 281.5q0 205 -12 279.5t-39 101.5q-29 31 -131 31h-254q-102 0 -133 -31q-27 -27 -38 -100.5t-11 -280.5zM297 1260v135q0 59 20 82q18 23 64 22h25q41 0 124 -31l242 -94l43 123h80v-135q0 -59 -21 -82q-18 -23 -63 -23h-25q-41 0 -124 31 l-242 94l-43 -122h-80z" />
<glyph unicode="&#xf6;" horiz-adv-x="1196" d="M137 549q0 238 20.5 335t73.5 150q61 61 224 62h286q162 0 222 -62q55 -53 75.5 -149.5t20.5 -336t-20.5 -336.5t-75.5 -151q-59 -61 -222 -61h-286q-162 0 -224 61q-53 53 -73.5 150.5t-20.5 337.5zM289 549q0 -209 11 -282.5t38 -100.5q33 -31 133 -31h254 q100 0 131 31q27 27 39 101.5t12 281.5q0 205 -12 279.5t-39 101.5q-29 31 -131 31h-254q-102 0 -133 -31q-27 -27 -38 -100.5t-11 -280.5zM322 1278v195h170v-195h-170zM700 1278v195h170v-195h-170z" />
<glyph unicode="&#xf7;" horiz-adv-x="1052" d="M127 676v135h799v-135h-799zM434 326v186h182v-186h-182zM434 975v186h182v-186h-182z" />
<glyph unicode="&#xf8;" horiz-adv-x="1202" d="M139 548.5q0 239.5 20.5 336t76.5 149.5q59 61 221 62h286q29 0 74 -4l62 116h145l-84 -151l27 -23q53 -53 73.5 -150.5t20.5 -334.5q0 -240 -20.5 -337t-73.5 -151q-61 -61 -224 -61h-286q-55 0 -80 2l-55 -104h-146l80 143q-12 8 -20 20q-55 53 -76 150.5t-21 337z M291 549q0 -322 45 -377l412 789h-21h-254q-102 0 -131 -31q-27 -27 -39 -101.5t-12 -279.5zM446 135h27h254q100 0 133 31q27 27 38 100.5t11 282.5q0 203 -11 277.5t-36 101.5z" />
<glyph unicode="&#xf9;" horiz-adv-x="1218" d="M172 274v822h152v-811q0 -88 32 -119q33 -33 125 -33h144q68 0 124 20.5t144 77.5v865h151v-1096h-151v147q-113 -92 -171 -120.5t-142 -28.5h-160q-131 0 -189 59q-59 57 -59 217zM283 1473v10h237l189 -232v-10h-138z" />
<glyph unicode="&#xfa;" horiz-adv-x="1218" d="M172 274v822h152v-811q0 -88 32 -119q33 -33 125 -33h144q68 0 124 20.5t144 77.5v865h151v-1096h-151v147q-113 -92 -171 -120.5t-142 -28.5h-160q-131 0 -189 59q-59 57 -59 217zM512 1241v10l188 232h238v-10l-289 -232h-137z" />
<glyph unicode="&#xfb;" horiz-adv-x="1218" d="M172 274v822h152v-811q0 -88 32 -119q33 -33 125 -33h144q68 0 124 20.5t144 77.5v865h151v-1096h-151v147q-113 -92 -171 -120.5t-142 -28.5h-160q-131 0 -189 59q-59 57 -59 217zM287 1245v10l237 244h172l238 -244v-10h-121l-205 148l-202 -148h-119z" />
<glyph unicode="&#xfc;" horiz-adv-x="1218" d="M172 274v822h152v-811q0 -88 32 -119q33 -33 125 -33h144q68 0 124 20.5t144 77.5v865h151v-1096h-151v147q-113 -92 -171 -120.5t-142 -28.5h-160q-131 0 -189 59q-59 57 -59 217zM336 1278v195h170v-195h-170zM715 1278v195h170v-195h-170z" />
<glyph unicode="&#xfd;" horiz-adv-x="1089" d="M51 1096h172l330 -889h14l301 889h162l-461 -1284q-25 -68 -64.5 -95.5t-113.5 -27.5q-68 0 -211 14v123h199q43 0 61 47l45 123zM459 1241v10l188 232h238v-10l-289 -232h-137z" />
<glyph unicode="&#xfe;" horiz-adv-x="1222" d="M176 -307v1782h152v-525q113 92 170 120t141 28h127q166 0 233 -68q49 -51 67.5 -146.5t18.5 -334.5q0 -242 -18 -337t-68 -146q-68 -68 -233 -68h-127q-84 0 -143.5 28.5t-167.5 118.5v-452h-152zM328 233q88 -55 146 -77.5t126 -22.5h135q111 0 150 39q29 29 39 102.5 t10 274.5t-10.5 273.5t-38.5 101.5q-39 39 -150 39h-139q-68 0 -125 -21.5t-143 -77.5v-631z" />
<glyph unicode="&#xff;" horiz-adv-x="1089" d="M51 1096h172l330 -889h14l301 889h162l-461 -1284q-25 -68 -64.5 -95.5t-113.5 -27.5q-68 0 -211 14v123h199q43 0 61 47l45 123zM283 1278v195h170v-195h-170zM662 1278v195h169v-195h-169z" />
<glyph unicode="&#x152;" horiz-adv-x="2131" d="M145 716.5q0 276.5 35 419t105 210.5q96 88 305 88h1427v-140h-782v-481h670v-137h-670v-537h776v-139h-1421q-209 0 -305 88q-70 68 -105 210t-35 418.5zM309 715q0 -250 24.5 -364.5t72.5 -160.5q51 -51 184 -51h483v1155h-483q-131 0 -184 -51q-47 -45 -72 -160.5 t-25 -367.5z" />
<glyph unicode="&#x153;" horiz-adv-x="1951" d="M137 549q0 238 20.5 335t73.5 150q61 61 224 62h268q158 0 219 -62q20 -18 41 -55q14 29 41 55q61 61 221 62h256q162 0 221 -60q55 -55 75 -149t20 -328v-35q0 -25 -25 -24h-731q2 -287 49 -336q31 -31 131 -31h272q88 0 119 31q35 35 37 172h148q-2 -123 -18.5 -180.5 t-57.5 -98.5q-57 -57 -199 -57h-297q-160 0 -221 61q-29 29 -41 54q-18 -31 -41 -54q-61 -61 -219 -61h-268q-162 0 -224 61q-53 53 -73.5 150.5t-20.5 337.5zM289 549q0 -209 11 -282.5t38 -100.5q33 -31 133 -31h254q100 0 131 31q27 27 39 101.5t12 281.5 q0 205 -12 279.5t-39 101.5q-29 31 -131 31h-254q-102 0 -133 -31q-27 -27 -38 -100.5t-11 -280.5zM1061 621h606q-2 264 -49 311q-35 33 -131 33h-246q-98 0 -133 -35q-25 -25 -35 -85.5t-12 -223.5z" />
<glyph unicode="&#x178;" horiz-adv-x="1206" d="M25 1434h176l399 -701h12l396 701h174l-496 -865v-569h-162v567zM332 1606v194h170v-194h-170zM711 1606v194h170v-194h-170z" />
<glyph unicode="&#x2c6;" horiz-adv-x="1024" d="M188 1245v10l238 244h172l238 -244v-10h-121l-205 148l-203 -148h-119z" />
<glyph unicode="&#x2dc;" horiz-adv-x="1024" d="M213 1260v135q0 59 20 82q18 23 64 22h25q41 0 124 -31l242 -94l43 123h80v-135q0 -59 -20 -82q-18 -23 -64 -23h-25q-41 0 -124 31l-242 94l-43 -122h-80z" />
<glyph unicode="&#x2000;" horiz-adv-x="913" />
<glyph unicode="&#x2001;" horiz-adv-x="1827" />
<glyph unicode="&#x2002;" horiz-adv-x="913" />
<glyph unicode="&#x2003;" horiz-adv-x="1827" />
<glyph unicode="&#x2004;" horiz-adv-x="609" />
<glyph unicode="&#x2005;" horiz-adv-x="456" />
<glyph unicode="&#x2006;" horiz-adv-x="304" />
<glyph unicode="&#x2007;" horiz-adv-x="304" />
<glyph unicode="&#x2008;" horiz-adv-x="228" />
<glyph unicode="&#x2009;" horiz-adv-x="365" />
<glyph unicode="&#x200a;" horiz-adv-x="101" />
<glyph unicode="&#x2010;" horiz-adv-x="835" d="M129 575v154h578v-154h-578z" />
<glyph unicode="&#x2011;" horiz-adv-x="835" d="M129 575v154h578v-154h-578z" />
<glyph unicode="&#x2012;" horiz-adv-x="835" d="M129 575v154h578v-154h-578z" />
<glyph unicode="&#x2013;" horiz-adv-x="1134" d="M141 578v149h852v-149h-852z" />
<glyph unicode="&#x2014;" horiz-adv-x="2035" d="M141 580v145h1753v-145h-1753z" />
<glyph unicode="&#x2018;" horiz-adv-x="458" d="M121 926v204q0 76 45 127l170 203l57 -45l-139 -203q-14 -23 -14 -57v-16h79v-213h-198z" />
<glyph unicode="&#x2019;" horiz-adv-x="458" d="M66 946l139 203q14 20 14 55v17h-82v213h201v-205q0 -72 -45 -125l-170 -203z" />
<glyph unicode="&#x201a;" horiz-adv-x="462" d="M57 -274l140 200q14 23 14 58v16h-80v213h199v-205q0 -76 -45 -127l-170 -200z" />
<glyph unicode="&#x201c;" horiz-adv-x="833" d="M121 926v204q0 76 45 127l170 203l57 -45l-139 -203q-14 -23 -14 -57v-16h79v-213h-198zM496 926v204q0 74 45 127l172 203l57 -45l-139 -203q-16 -27 -17 -57v-16h82v-213h-200z" />
<glyph unicode="&#x201d;" horiz-adv-x="833" d="M66 946l139 203q14 20 14 55v17h-82v213h201v-205q0 -72 -45 -125l-170 -203zM440 946l140 203q16 23 16 55v17h-82v213h201v-205q0 -72 -45 -125l-172 -203z" />
<glyph unicode="&#x201e;" horiz-adv-x="835" d="M57 -274l140 200q14 23 14 58v16h-80v213h199v-205q0 -76 -45 -127l-170 -200zM434 -274l137 200q16 27 17 58v16h-82v213h201v-205q0 -74 -45 -127l-170 -200z" />
<glyph unicode="&#x2022;" horiz-adv-x="997" d="M252 743.5q0 110.5 10 156.5t37 73q33 35 119 35h164q84 0 116 -35q27 -27 37 -73t10 -156.5t-10 -156.5t-37 -73q-33 -35 -116 -35h-164q-86 0 -119 35q-27 27 -37 73t-10 156.5z" />
<glyph unicode="&#x2026;" horiz-adv-x="1452" d="M150 0v209h190v-209h-190zM631 0v209h192v-209h-192zM1112 0v209h193v-209h-193z" />
<glyph unicode="&#x202f;" horiz-adv-x="365" />
<glyph unicode="&#x2039;" horiz-adv-x="741" d="M123 498v100l315 328h174l-350 -377l352 -377h-176z" />
<glyph unicode="&#x203a;" horiz-adv-x="741" d="M125 172l352 377l-350 377h176l315 -328v-100l-315 -326h-178z" />
<glyph unicode="&#x205f;" horiz-adv-x="456" />
<glyph unicode="&#x20ac;" horiz-adv-x="1421" d="M82 465v135h151v117v129h-151v135h158q8 184 34.5 266t75.5 129q59 57 225 58h361q166 0 225 -58q57 -53 82 -138t29 -251h-158q-8 227 -59 277q-33 33 -131 32h-334q-98 0 -131 -32q-49 -45 -62 -283h451v-135h-455v-129v-117h455v-135h-451q12 -248 62 -295 q33 -33 131 -33h334q98 0 131 33q29 27 42 89.5t17 209.5h160q-8 -186 -31.5 -272t-81.5 -140q-35 -33 -82 -45t-143 -12h-361q-166 0 -225 57q-51 45 -76.5 130t-35.5 278h-156z" />
<glyph unicode="&#x2122;" horiz-adv-x="1738" d="M106 1352v82h580v-82h-242v-707h-96v707h-242zM842 645v789h143q23 0 31 -7.5t14 -27.5l203 -645h14l203 645q6 23 14.5 29t30.5 6h137v-789h-94v694h-14l-219 -659q-10 -35 -48 -35h-45q-23 0 -30.5 7t-14.5 28l-219 659h-14v-694h-92z" />
<glyph unicode="&#x25fc;" horiz-adv-x="1095" d="M0 0v1096h1096v-1096h-1096z" />
</font>
</defs>
</svg>
