<?xml version="1.0" standalone="no"?>
<!DOCTYPE svg PUBLIC "-//W3C//DTD SVG 1.1//EN" "http://www.w3.org/Graphics/SVG/1.1/DTD/svg11.dtd" >
<svg xmlns="http://www.w3.org/2000/svg">
<metadata></metadata>
<defs>
<font id="forzamedium" horiz-adv-x="1024" >
<font-face units-per-em="2048" ascent="1638" descent="-410" />
<missing-glyph horiz-adv-x="460" />
<glyph horiz-adv-x="2048" />
<glyph horiz-adv-x="2048" />
<glyph unicode="&#xd;" horiz-adv-x="681" />
<glyph unicode=" "  horiz-adv-x="460" />
<glyph unicode="&#x09;" horiz-adv-x="460" />
<glyph unicode="&#xa0;" horiz-adv-x="460" />
<glyph unicode="!" horiz-adv-x="692" d="M205 1358v76h282v-76l-81 -907h-99zM215 0v274h262v-274h-262z" />
<glyph unicode="&#x22;" horiz-adv-x="1030" d="M164 1393v41h282v-41l-81 -519h-119zM602 1393v41h283v-41l-82 -519h-119z" />
<glyph unicode="#" horiz-adv-x="1519" d="M78 367v186h258l86 360h-211v187h256l82 334h203l-82 -334h354l82 334h203l-82 -334h215v-187h-260l-86 -360h213v-186h-258l-88 -367h-203l88 367h-354l-88 -367h-203l88 367h-213zM528 545h371l90 377h-371z" />
<glyph unicode="$" horiz-adv-x="1331" d="M133 451h223q4 -207 29 -232q23 -23 98 -22h103v430l-158 14q-154 14 -209 70q-41 41 -54 105.5t-13 211.5q0 141 17 216t67 124q66 66 227 66h115v163h186v-163h100q170 0 232 -62q45 -45 61.5 -116.5t22.5 -262.5h-224q-4 197 -28 221q-23 23 -88 23h-84v-414l172 -16 q154 -16 205 -68q41 -41 56 -109.5t15 -213.5q0 -152 -17.5 -226.5t-66.5 -123.5q-66 -66 -221 -66h-135v-184h-186v184h-129q-174 0 -238 63q-43 43 -59.5 120t-18.5 268zM373 1030q-1 -129 26 -156q18 -18 93 -26l94 -10v399h-99q-66 0 -88 -23q-27 -27 -26 -184zM756 197 h110q68 0 90 22q27 27 27 195q0 131 -27 157q-20 21 -92 29l-108 10v-413z" />
<glyph unicode="%" horiz-adv-x="1695" d="M109 1071q0 143 17 210t54 103q49 49 156 50h125q106 0 155 -50q37 -37 54.5 -103.5t17.5 -209.5t-17.5 -209.5t-54.5 -103.5q-49 -49 -155 -49h-125q-106 0 -156 49q-37 37 -54 103.5t-17 209.5zM264 -6l529 764l460 682h179l-529 -764l-461 -682h-178zM283 1071.5 q0 -172.5 20 -192.5q16 -16 59 -17h72q43 0 60 17q20 20 20 192t-20 193q-16 16 -60 16h-72q-43 0 -59 -16q-20 -20 -20 -192.5zM1008 362.5q0 143.5 17 210t54 103.5q49 49 156 49h125q106 0 156 -49q37 -37 54 -103.5t17 -210t-17.5 -210t-53.5 -103.5q-49 -49 -156 -49 h-125q-106 0 -156 49q-37 37 -54 103.5t-17 210zM1182 362.5q0 -172.5 20 -192.5q16 -16 60 -16h71q43 0 60 16q20 20 20 192.5t-20 192.5q-16 16 -60 16h-71q-43 0 -60 -16q-20 -20 -20 -192.5z" />
<glyph unicode="&#x26;" horiz-adv-x="1456" d="M125 424q0 158 11 216t54 101q53 53 189 78l24 4q-37 80 -36 219q0 150 15 218.5t56 109.5q63 63 240 64h178q139 0 193 -54q45 -45 59 -117.5t14 -238.5h-217q-2 182 -22 203q-16 16 -78 16h-98q-76 0 -97 -20q-18 -18 -18 -183q0 -100 20 -153q18 -43 90 -123l211 -225 h17l196 280h248l-311 -430l356 -389h-291l-182 203h-18l-43 -64q-98 -141 -281 -141h-158q-170 0 -239 70q-45 45 -63.5 120.5t-18.5 235.5zM344 424q0 -178 33 -211q27 -27 125 -27h59q119 0 172 76l64 90l-291 307l-57 -14q-51 -14 -78 -40.5t-27 -180.5z" />
<glyph unicode="'" horiz-adv-x="591" d="M164 1393v41h282v-41l-81 -519h-119z" />
<glyph unicode="(" horiz-adv-x="827" d="M199 563q0 350 18 453q12 72 72.5 168t202.5 270h157q-172 -315 -192 -403q-25 -117 -25 -487.5t25 -487.5q20 -88 192 -404h-157q-141 174 -202 270.5t-73 168.5q-18 100 -18 452z" />
<glyph unicode=")" horiz-adv-x="827" d="M178 -328q172 315 193 404q25 117 24.5 487.5t-24.5 487.5q-20 88 -193 403h158q141 -174 201.5 -270.5t72.5 -167.5q19 -103 19 -453q0 -352 -19 -452q-12 -72 -72.5 -168.5t-201.5 -270.5h-158z" />
<glyph unicode="*" horiz-adv-x="1060" d="M164 1004v163l258 -41v-82zM276 809l164 203l72 -41l-94 -244zM276 1362l142 82l94 -244l-72 -41zM549 971l72 41l163 -203l-141 -82zM549 1200l94 244l141 -82l-163 -203zM639 1044v82l258 41v-163z" />
<glyph unicode="+" horiz-adv-x="1040" d="M115 647v193h309v309h192v-309h310v-193h-310v-309h-192v309h-309z" />
<glyph unicode="," horiz-adv-x="557" d="M98 -246l133 180q16 23 17 52v14h-101v274h263v-262q0 -78 -60 -139l-178 -180z" />
<glyph unicode="-" horiz-adv-x="839" d="M127 543v219h586v-219h-586z" />
<glyph unicode="." horiz-adv-x="557" d="M147 0v274h263v-274h-263z" />
<glyph unicode="/" horiz-adv-x="1030" d="M-84 -328l836 1782h217l-836 -1782h-217z" />
<glyph unicode="0" horiz-adv-x="1398" d="M137 717q0 301 37 443.5t105 203.5q47 41 105 55.5t179 14.5h273q121 0 179 -14.5t105 -55.5q68 -61 105 -203.5t37 -443.5t-37 -443.5t-105 -203.5q-47 -41 -105.5 -55.5t-178.5 -14.5h-273q-121 0 -179 14.5t-105 55.5q-68 61 -105 203.5t-37 443.5zM381 717 q0 -432 63 -492q33 -29 123 -28h264q90 0 123 28q63 59 63.5 491.5t-63.5 491.5q-33 29 -123 29h-264q-90 0 -123 -29q-63 -59 -63 -491z" />
<glyph unicode="1" horiz-adv-x="778" d="M37 1307l348 129h188v-1436h-229v1202l-242 -82z" />
<glyph unicode="2" horiz-adv-x="1300" d="M139 0v158q0 176 21.5 257t79.5 140q63 66 219 127l356 139q84 35 107 78q27 53 26.5 159.5t-37.5 143.5q-29 29 -135 29h-217q-94 0 -123 -33q-29 -35 -35 -205h-235q4 158 27.5 240t70.5 129q72 72 262 72h316q178 0 245 -68q96 -96 97 -307q0 -195 -72 -293 q-53 -74 -233 -145l-361 -142q-80 -33 -108 -63q-25 -29 -35 -67t-10 -126v-20h827v-203h-1053z" />
<glyph unicode="3" horiz-adv-x="1353" d="M127 463h235q8 -209 39 -240q29 -27 119 -26h285q92 0 121 28q41 41 41 197q0 158 -41 199q-29 26 -117 26h-305v191h291q90 0 118 28q41 41 41 172t-41 172q-27 27 -116 27h-265q-90 0 -116 -27q-33 -33 -41 -209h-236q0 258 105 363q70 70 250 70h366q176 0 244 -68 q96 -96 96 -307q0 -135 -54 -214t-138 -100v-4q205 -37 204 -327q0 -250 -96 -346q-68 -68 -244 -68h-391q-182 0 -252 70q-102 102 -102 393z" />
<glyph unicode="4" horiz-adv-x="1347" d="M92 362v74q0 88 51 170l439 711q41 68 77.5 92.5t96.5 24.5h270v-885h242v-187h-242v-362h-223v362h-711zM346 549h457v696h-35z" />
<glyph unicode="5" horiz-adv-x="1361" d="M145 430h236q4 -172 43 -205q29 -29 119 -28h268q84 0 119 30q45 41 45 234q0 186 -45 227q-33 29 -119 29h-158q-82 0 -145.5 -17.5t-151.5 -66.5l-180 61l49 740h944v-205h-733l-30 -404h18q70 61 122 74.5t171 13.5h129q190 0 268 -77q104 -104 105 -375 q0 -272 -105 -377q-84 -84 -268 -84h-336q-197 0 -266 70q-53 53 -75 128.5t-24 231.5z" />
<glyph unicode="6" horiz-adv-x="1353" d="M137 717q0 293 37 436t107 207q49 45 111.5 59.5t189.5 14.5h268q174 0 240 -68q49 -49 69.5 -122t22.5 -214h-238q-8 150 -36.5 178.5t-112.5 28.5h-213q-101 0 -138 -33q-66 -57 -65 -469q88 70 135 90.5t113 20.5h243q195 0 265 -70q51 -49 69.5 -127t18.5 -219 q0 -250 -101 -348q-82 -82 -260 -82h-299q-117 0 -178 16.5t-109 59.5q-68 61 -103.5 200.5t-35.5 440.5zM379 602q10 -324 67 -373q33 -33 127 -32h238q96 0 131 34q39 39 39 191q0 154 -39 192q-35 35 -131 35h-254q-82 0 -178 -47z" />
<glyph unicode="7" horiz-adv-x="1206" d="M102 1229v205h1008v-150l-618 -1284h-250l598 1229h-738z" />
<glyph unicode="8" horiz-adv-x="1359" d="M141 410q0 299 205 331v4q-188 29 -188 308q0 213 96 303q74 78 244 78h364q170 0 244 -78q96 -90 96 -303q0 -279 -188 -308v-4q205 -33 205 -331q0 -229 -101 -328q-82 -82 -260 -82h-356q-178 0 -260 82q-100 98 -101 328zM385 418q0 -147 39 -187q35 -34 131 -34h250 q96 0 131 34q39 39 39 187q0 160 -39 198q-35 35 -131 35h-250q-96 0 -131 -35q-39 -39 -39 -198zM401 1042q0 -139 35 -174q31 -30 115 -30h258q84 0 115 30q35 35 34 174q0 129 -34 164q-31 31 -115 31h-258q-84 0 -115 -31q-35 -35 -35 -164z" />
<glyph unicode="9" horiz-adv-x="1359" d="M137 989q0 264 101 363q82 82 260 82h299q117 0 178 -16.5t108 -59.5q68 -61 104 -200.5t36 -440.5q0 -293 -37 -436.5t-107 -206.5q-49 -45 -111.5 -59.5t-189.5 -14.5h-301q-174 0 -239 68q-49 47 -70 116.5t-23 204.5h228q8 -135 36.5 -163.5t112.5 -28.5h256 q100 -1 137 32q18 18 29.5 44t24 125.5t12.5 267.5q-88 -68 -135 -88.5t-113 -20.5h-246q-190 0 -260 70q-51 49 -70.5 133t-19.5 229zM379 997q0 -170 39 -209q35 -34 131 -34h254q82 0 176 47q-8 346 -66 403q-33 33 -127 33h-237q-96 0 -131 -35q-39 -39 -39 -205z" />
<glyph unicode=":" horiz-adv-x="565" d="M152 0v274h262v-274h-262zM152 831v275h262v-275h-262z" />
<glyph unicode=";" horiz-adv-x="563" d="M102 -246l134 180q16 23 16 52v14h-100v274h262v-262q0 -78 -60 -139l-178 -180zM152 831v275h268v-275h-268z" />
<glyph unicode="&#x3c;" horiz-adv-x="1040" d="M121 647v193l770 387v-215l-561 -267l561 -266v-219z" />
<glyph unicode="=" horiz-adv-x="1040" d="M135 428v209h770v-209h-770zM135 850v209h770v-209h-770z" />
<glyph unicode="&#x3e;" horiz-adv-x="1040" d="M150 260v215l559 266l-559 267v219l770 -387v-193z" />
<glyph unicode="?" horiz-adv-x="1118" d="M80 979q2 184 17.5 266t58.5 125q63 63 229 64h324q166 0 233 -68q41 -41 57.5 -106.5t16.5 -194.5q0 -137 -15.5 -196.5t-64.5 -108.5q-39 -39 -213 -117q-76 -33 -109 -65q-27 -27 -34 -127h-170v59q0 98 10 143t39 74q43 43 184 104q84 35 114.5 66t30.5 160 q0 133 -24 157q-18 18 -90 19h-250q-72 0 -92 -21q-23 -23 -27 -233h-225zM367 0v272h256v-272h-256z" />
<glyph unicode="@" horiz-adv-x="1933" d="M199 563.5q0 358.5 37.5 525t103.5 232.5q57 57 133 85t225 28h559q145 0 219 -26t130 -81q129 -129 129 -668q0 -383 -88 -471q-61 -61 -162 -61h-80q-129 0 -244 113q-78 -70 -117.5 -91.5t-93.5 -21.5h-80q-139 0 -196 57q-86 86 -86 387t86 387q57 57 196 58h80 q53 0 93 -21.5t118 -91.5l39 113h129l-12 -225v-488q0 -47 26.5 -73.5t121 -26.5t129 34.5t50 124t15.5 297.5q0 506 -119 625q-45 45 -105.5 62.5t-185.5 17.5h-544q-135 0 -195.5 -19.5t-114.5 -72.5q-59 -59 -90 -215t-31 -494t32 -494.5t91 -215.5q51 -51 113.5 -71 t194.5 -20h845v-69h-852q-150 0 -225.5 27.5t-132.5 84.5q-66 66 -103.5 233t-37.5 525.5zM766 571.5q0 -233.5 33 -266.5q23 -23 86 -22h106q72 0 152 41v491q-82 45 -144 45h-114q-63 0 -86 -22q-33 -33 -33 -266.5z" />
<glyph unicode="A" horiz-adv-x="1347" d="M39 0l455 1384q10 35 25.5 45.5t55.5 10.5h199q39 0 54.5 -10.5t27.5 -45.5l455 -1384h-248l-125 403h-547l-125 -403h-227zM451 596h426l-197 643h-31z" />
<glyph unicode="B" horiz-adv-x="1361" d="M168 0v1434h747q160 0 226 -60q49 -43 68.5 -113.5t19.5 -222.5q0 -141 -49.5 -202.5t-161.5 -90.5v-4q125 -20 175 -89.5t50 -231.5q0 -164 -22.5 -236.5t-71.5 -120.5q-66 -63 -229 -63h-752zM397 197h484q84 0 100 16q33 33 33 205q0 176 -37 213q-16 16 -96 16h-484 v-450zM397 840h471q80 0 99 16q32 28 32 175v9q0 152 -30 181q-16 16 -101 16h-471v-397z" />
<glyph unicode="C" horiz-adv-x="1359" d="M137 717q0 336 31 467t98 192q37 33 85 45.5t149 12.5h397q100 0 148.5 -12.5t84.5 -45.5q63 -55 91 -144t30 -269h-229q-8 215 -47 251q-27 23 -103 23h-348q-76 0 -102 -23q-51 -47 -51 -497.5t51 -497.5q26 -22 96 -22h6h348h11q66 0 92 22q41 37 47 275h231 q-8 -205 -33.5 -292t-89.5 -145q-37 -33 -85 -45t-148 -12h-397q-100 0 -148.5 12.5t-85.5 44.5q-68 61 -98.5 192.5t-30.5 467.5z" />
<glyph unicode="D" horiz-adv-x="1396" d="M168 0v1434h623q129 0 208.5 -24t139.5 -77q139 -127 139 -616.5t-139 -616.5q-59 -53 -139 -76.5t-209 -23.5h-623zM397 197h394q127 0 174 45q43 41 61 140.5t18 332.5q0 238 -18 337t-61 140q-33 29 -68 37t-106 8h-394v-1040z" />
<glyph unicode="E" horiz-adv-x="1247" d="M168 0v1434h979v-197h-750v-395h621v-197h-621v-448h750v-197h-979z" />
<glyph unicode="F" horiz-adv-x="1161" d="M168 0v1434h924v-197h-695v-430h553v-197h-553v-610h-229z" />
<glyph unicode="G" horiz-adv-x="1388" d="M137 717q0 336 31 467t98 192q37 33 85.5 45.5t148.5 12.5h403q100 0 148.5 -12.5t85.5 -45.5q63 -55 86.5 -132t25.5 -261h-223q-4 195 -45 231q-27 23 -102 23h-355q-76 0 -102 -23q-51 -47 -51 -497.5t51 -497.5q26 -22 96 -22h6h355h10q66 0 92 22q49 45 49 264v72 h-334v197h566v-183q0 -225 -31 -339.5t-94 -172.5q-37 -33 -85 -45t-149 -12h-403q-100 0 -148.5 12.5t-85.5 44.5q-68 61 -98.5 192.5t-30.5 467.5z" />
<glyph unicode="H" horiz-adv-x="1478" d="M168 0v1434h229v-592h684v592h230v-1434h-230v645h-684v-645h-229z" />
<glyph unicode="I" horiz-adv-x="589" d="M180 0v1434h230v-1434h-230z" />
<glyph unicode="J" horiz-adv-x="1181" d="M61 475h222q8 -219 36 -248q30 -30 100 -30h5h98q180 0 213 32q27 27 38 92.5t11 249.5v863h230v-842q0 -256 -22.5 -355.5t-84.5 -160.5q-47 -47 -126 -63.5t-228 -16.5h-145q-186 0 -256 70q-49 49 -69 132t-22 277z" />
<glyph unicode="K" horiz-adv-x="1284" d="M168 0v1434h229v-592h123l471 592h266l-552 -676l565 -758h-273l-473 645h-127v-645h-229z" />
<glyph unicode="L" horiz-adv-x="1150" d="M168 0v1434h229v-1237h695v-197h-924z" />
<glyph unicode="M" horiz-adv-x="1828" d="M168 0v1434h356q43 0 61.5 -15.5t28.5 -56.5l291 -1063h31l289 1063q10 41 28.5 56.5t59.5 15.5h348v-1434h-234v1219h-30l-334 -1156q-12 -41 -25.5 -52t-54.5 -11h-147q-41 0 -55.5 11.5t-24.5 51.5l-334 1176h-31v-1239h-223z" />
<glyph unicode="N" horiz-adv-x="1476" d="M168 0v1434h254q45 0 65.5 -13.5t38.5 -54.5l529 -1006h30v1074h224v-1434h-234q-45 0 -66.5 13.5t-39.5 54.5l-547 1054h-31v-1122h-223z" />
<glyph unicode="O" horiz-adv-x="1409" d="M137 717q0 336 31 467t98 192q37 33 85.5 45.5t148.5 12.5h409q100 0 148.5 -12.5t85.5 -45.5q68 -61 98.5 -192t30.5 -467t-31 -467t-98 -193q-37 -33 -85 -45t-149 -12h-409q-100 0 -148.5 12.5t-85.5 44.5q-68 61 -98.5 192.5t-30.5 467.5zM371 716.5 q0 -450.5 51 -497.5q26 -22 96 -22h6h361h10q66 0 92 22q51 47 51 497.5t-51 497.5q-27 23 -102 23h-361q-76 0 -102 -23q-51 -47 -51 -497.5z" />
<glyph unicode="P" horiz-adv-x="1290" d="M168 0v1434h715q162 0 221 -54q117 -104 117 -405q0 -285 -117 -393q-59 -53 -221 -54h-486v-528h-229zM397 725h428q88 0 111 18q51 41 51 238t-51 238q-23 18 -111 18h-428v-512z" />
<glyph unicode="Q" horiz-adv-x="1409" d="M137 717q0 336 31 467t98 192q37 33 85 45.5t149 12.5h409q100 0 148.5 -12.5t85.5 -45.5q68 -61 98.5 -192t30.5 -467t-31 -467t-98 -193q-57 -51 -180 -57l65 -221h-213l-65 221h-250q-100 0 -148.5 12.5t-85.5 44.5q-68 61 -98.5 192.5t-30.5 467.5zM371 716.5 q0 -450.5 51 -497.5q26 -22 96 -22h6h166l-84 288h213l86 -288q57 2 82 22q51 47 51 497.5t-51 497.5q-27 23 -102 23h-361q-76 0 -102 -23q-51 -47 -51 -497.5z" />
<glyph unicode="R" horiz-adv-x="1378" d="M168 0v1434h772q145 0 205 -60q47 -47 69.5 -122.5t22.5 -225.5q0 -182 -53.5 -255t-179.5 -91v-4q121 -23 167 -74t52 -201q12 -305 22 -401h-229q-21 135 -27 395q-2 131 -45 168q-35 29 -149 29h-398v-592h-229zM397 780h475q68 0 89 21q45 45 45 211t-43 209 q-16 16 -91 16h-475v-457z" />
<glyph unicode="S" horiz-adv-x="1337" d="M125 451h227q4 -209 26.5 -231.5t90.5 -22.5h403q72 0 94.5 22.5t22.5 194.5q0 135 -24 159q-20 20 -95 27l-450 41q-150 14 -209 74q-41 41 -54.5 104.5t-13.5 208.5q0 141 17.5 216t66.5 124q66 66 217 66h443q164 0 223 -60q45 -45 60.5 -116.5t21.5 -264.5h-227 q-4 199 -27 221.5t-90 22.5h-363q-70 0 -92 -22.5t-22 -184.5q0 -133 24 -158q16 -16 94 -24l451 -41q145 -12 205 -72q41 -41 56.5 -107.5t15.5 -211.5q0 -152 -17.5 -226.5t-66.5 -123.5q-66 -66 -222 -66h-481q-164 0 -223 59q-45 45 -62.5 122t-19.5 270z" />
<glyph unicode="T" horiz-adv-x="1228" d="M49 1237v197h1131v-197h-451v-1237h-229v1237h-451z" />
<glyph unicode="U" horiz-adv-x="1452" d="M168 596v838h229v-887q0 -123 7.5 -190.5t15.5 -85t26 -35.5q33 -33 220 -33h129q182 0 215 33q18 18 25 36.5t13.5 83t6.5 191.5v887h229v-838q0 -256 -22.5 -352.5t-83.5 -157.5q-49 -49 -129 -67.5t-224 -18.5h-209q-260 0 -344 84q-61 61 -82.5 156.5t-21.5 355.5z " />
<glyph unicode="V" horiz-adv-x="1310" d="M37 1434h248l362 -1213h31l362 1213h232l-436 -1385q-10 -35 -25.5 -45t-56.5 -10h-199q-39 0 -55.5 10t-26.5 45z" />
<glyph unicode="W" horiz-adv-x="1939" d="M63 1434h244l219 -1143h27l258 1079q8 43 26.5 55.5t63.5 12.5h150q45 0 63.5 -12.5t26.5 -55.5l256 -1079h26l222 1143h231l-303 -1391q-6 -31 -21.5 -40t-60.5 -9h-166q-45 0 -59.5 9t-22.5 44l-258 1079h-27l-258 -1079q-8 -33 -23 -43t-59 -10h-167q-45 0 -60.5 9 t-21.5 40z" />
<glyph unicode="X" horiz-adv-x="1316" d="M35 0l493 733l-477 701h266l345 -514h18l342 514h254l-477 -705l493 -729h-256l-372 543h-19l-366 -543h-244z" />
<glyph unicode="Y" horiz-adv-x="1243" d="M6 1434h252l360 -637h17l354 637h248l-498 -861v-573h-229v567z" />
<glyph unicode="Z" horiz-adv-x="1280" d="M98 0v150l807 1087h-766v197h1055v-150l-807 -1087h797v-197h-1086z" />
<glyph unicode="[" horiz-adv-x="937" d="M211 -307v1741h590v-181h-383v-1380h383v-180h-590z" />
<glyph unicode="\" d="M61 1454h211l836 -1782h-211z" />
<glyph unicode="]" horiz-adv-x="937" d="M137 -127h383v1380h-383v181h590v-1741h-590v180z" />
<glyph unicode="^" horiz-adv-x="1073" d="M168 979v10l307 451h123l307 -451v-10h-162l-208 307l-209 -307h-158z" />
<glyph unicode="_" d="M-4 -133h1032v-174h-1032v174z" />
<glyph unicode="`" d="M229 1464v11h340l174 -220v-10h-206z" />
<glyph unicode="a" horiz-adv-x="1175" d="M109 297q0 193 67 260q43 43 112.5 61.5t254.5 18.5q174 0 272 -31v123q0 154 -24 178q-18 18 -97 19h-221q-70 0 -88 -18.5t-25 -137.5h-206q2 209 67 274q61 61 187 62h340q156 0 215 -59q39 -39 51 -97.5t12 -204.5v-745h-211v135q-104 -88 -151.5 -112.5 t-118.5 -24.5h-172q-141 0 -199 57q-65 65 -65 237v5zM317 332q0 -115 21 -135q16 -16 86 -17h158q109 0 233 68v229h-287q-156 0 -184 -28q-27 -27 -27 -117z" />
<glyph unicode="b" horiz-adv-x="1234" d="M156 0v1475h213v-502q104 86 155 110.5t121 24.5h150q158 0 225 -68q49 -49 68.5 -146t19.5 -341t-19.5 -341t-68.5 -146q-68 -68 -225 -68h-150q-70 0 -121 24.5t-155 108.5v-131h-213zM369 254q125 -66 215 -66h159q86 0 113 27q23 23 31 88.5t8 249.5t-8 249.5 t-31 88.5q-27 27 -113 27h-168q-84 0 -206 -62v-602z" />
<glyph unicode="c" horiz-adv-x="1136" d="M127 553q0 244 18.5 339t73.5 150q63 63 219 64h336q125 0 180 -55q41 -41 57.5 -112t16.5 -222h-207q-4 160 -24 180q-18 18 -76 18h-256q-74 0 -94 -20q-16 -16 -23.5 -79.5t-7.5 -262.5t7 -262.5t24 -79.5q20 -20 94 -21h258q61 0 80 19q22 22 22 194h207 q0 -166 -16.5 -235.5t-59.5 -112.5q-55 -55 -180 -55h-338q-156 0 -219 63q-55 55 -73.5 150.5t-18.5 339.5z" />
<glyph unicode="d" horiz-adv-x="1234" d="M127 553q0 244 19.5 341t68.5 146q68 68 225 68h150q68 0 120 -24.5t156 -110.5v502h213v-1475h-213v133q-104 -84 -156.5 -109.5t-119.5 -25.5h-150q-158 0 -225 68q-49 49 -68.5 146t-19.5 341zM340 553q0 -184 8 -249.5t31 -88.5q27 -27 113 -27h159q92 0 215 66v602 q-121 61 -207 62h-167q-86 0 -113 -27q-23 -23 -31 -88.5t-8 -249.5z" />
<glyph unicode="e" horiz-adv-x="1173" d="M127 553q0 244 18.5 339t73.5 150q63 63 219 64h303q158 0 220 -62q55 -55 73.5 -149t18.5 -332v-55q0 -25 -25 -25h-690q2 -248 31 -276q20 -20 94 -21h287q53 0 73 21q18 18 23 137h207q-2 -129 -18.5 -188.5t-57.5 -100.5q-55 -55 -180 -55h-359q-156 0 -219 63 q-55 55 -73.5 150.5t-18.5 339.5zM338 653h504q0 215 -31 246q-20 20 -94 21h-254q-73 0 -96 -23q-27 -27 -29 -244z" />
<glyph unicode="f" horiz-adv-x="755" d="M66 920v186h182v57q0 188 59 248q63 63 187 64h196v-183h-149q-47 0 -63.5 -16t-16.5 -111v-59h248v-186h-246v-920h-215v920h-182z" />
<glyph unicode="g" horiz-adv-x="1234" d="M129 614q0 213 19.5 295t68.5 131q68 68 225 68h148q68 0 120 -24.5t156 -110.5v133h213v-1053q0 -141 -14 -200.5t-55 -100.5q-59 -59 -215 -59h-396q-123 0 -180 57q-59 59 -59 217h213q2 -61 22 -82q16 -16 84 -16h269q78 0 96 18q22 22 22 129v9v229 q-104 -84 -156.5 -108.5t-119.5 -24.5h-148q-158 0 -225 67q-49 49 -68.5 131t-19.5 295zM342 614.5q0 -157.5 7 -206t32 -72.5q27 -27 113 -27h165q90 0 207 62v483q-125 66 -215 66h-157q-86 0 -113 -27q-25 -25 -32 -73t-7 -205.5z" />
<glyph unicode="h" horiz-adv-x="1224" d="M156 0v1475h213v-502q104 86 155 110.5t121 24.5h174q127 0 191 -64q35 -35 50 -88t15 -161v-795h-213v780q0 78 -28 107q-31 31 -115 31h-144q-84 0 -206 -62v-856h-213z" />
<glyph unicode="i" horiz-adv-x="524" d="M141 1266v229h242v-229h-242zM156 0v1106h213v-1106h-213z" />
<glyph unicode="j" horiz-adv-x="552" d="M-6 -127v-174q68 -10 123 -10q150 0 211 61q39 39 54 97.5t15 172.5v1086h-213v-1129q0 -66 -22 -88q-16 -16 -70 -16h-98zM170 1266v229h242v-229h-242z" />
<glyph unicode="k" horiz-adv-x="1093" d="M156 0v1475h213v-824h80l366 455h252l-453 -531l469 -575h-266l-375 473h-73v-473h-213z" />
<glyph unicode="l" horiz-adv-x="524" d="M156 0v1475h213v-1475h-213z" />
<glyph unicode="m" horiz-adv-x="1849" d="M156 0v1106h213v-133q104 86 155 110.5t121 24.5h133q127 0 191 -64q35 -39 49 -83q115 94 168 120.5t125 26.5h133q127 0 190 -64q35 -35 50.5 -88t15.5 -161v-795h-213v780q0 78 -29 107q-31 31 -115 31h-102q-86 0 -209 -62q2 -18 2 -61v-795h-213v780q0 78 -28 107 q-31 31 -115 31h-103q-84 0 -206 -62v-856h-213z" />
<glyph unicode="n" horiz-adv-x="1224" d="M156 0v1106h213v-133q104 86 155 110.5t121 24.5h174q127 0 191 -64q35 -35 50 -88t15 -161v-795h-213v780q0 78 -28 107q-31 31 -115 31h-144q-84 0 -206 -62v-856h-213z" />
<glyph unicode="o" horiz-adv-x="1202" d="M127 553q0 244 18.5 339t73.5 150q63 63 219 64h326q156 0 219 -64q55 -55 73.5 -150t18.5 -339t-18.5 -339t-73.5 -151q-63 -63 -219 -63h-326q-156 0 -219 63q-55 55 -73.5 150.5t-18.5 339.5zM340 553q0 -199 7 -262.5t24 -79.5q20 -20 94 -21h272q74 0 94 21 q16 16 23.5 79.5t7.5 262.5t-7 262.5t-24 79.5q-20 20 -94 20h-272q-74 0 -94 -20q-16 -16 -23.5 -79.5t-7.5 -262.5z" />
<glyph unicode="p" horiz-adv-x="1234" d="M156 -307v1413h213v-133q104 86 155 110.5t121 24.5h150q158 0 225 -68q49 -49 68.5 -146t19.5 -341t-19.5 -341t-68.5 -146q-68 -68 -225 -68h-150q-70 0 -121 24.5t-155 108.5v-438h-213zM369 254q125 -66 215 -66h159q86 0 113 27q23 23 31 88.5t8 249.5t-8 249.5 t-31 88.5q-27 27 -113 27h-168q-84 0 -206 -62v-602z" />
<glyph unicode="q" horiz-adv-x="1234" d="M127 553q0 244 19.5 341t68.5 146q68 68 225 68h150q68 0 120 -24.5t156 -110.5v133h213v-1413h-213v440q-104 -84 -156.5 -109.5t-119.5 -25.5h-150q-158 0 -225 68q-49 49 -68.5 146t-19.5 341zM340 553q0 -184 8 -249.5t31 -88.5q27 -27 113 -27h159q92 0 215 66v602 q-121 61 -207 62h-167q-86 0 -113 -27q-23 -23 -31 -88.5t-8 -249.5z" />
<glyph unicode="r" horiz-adv-x="817" d="M156 0v1106h213v-162q88 92 140 128t116 36h131v-219h-156q-125 0 -231 -41v-848h-213z" />
<glyph unicode="s" horiz-adv-x="1126" d="M115 348h196q4 -139 21 -155q14 -14 69 -15h324q55 0 72 17q18 18 18 114q0 92 -20 113q-18 18 -70 22l-375 39q-123 14 -164 56q-33 33 -45 87t-12 167q0 195 68 262q51 51 165 51h404q119 0 166 -47q35 -35 49 -94.5t16 -198.5h-196q-4 127 -23 145q-16 16 -67 17h-293 q-53 0 -68 -15q-20 -20 -20 -108q0 -92 16 -108.5t76 -24.5l381 -39q117 -10 160 -53q51 -52 51 -258.5t-66 -272.5q-49 -49 -166 -49h-426q-129 0 -176 47q-37 37 -50 95.5t-15 205.5z" />
<glyph unicode="t" horiz-adv-x="792" d="M41 920v186h192v274h216v-274h264v-186h-264v-646q0 -61 14 -75q10 -10 80 -11h168v-143l-125 -37q-61 -16 -140 -16q-115 0 -165 51q-47 47 -48 172v705h-192z" />
<glyph unicode="u" horiz-adv-x="1224" d="M150 311v795h212v-780q0 -78 29 -107q31 -31 115 -31h143q86 0 207 62v856h213v-1106h-213v133q-104 -84 -156.5 -109.5t-119.5 -25.5h-174q-127 0 -191 63q-35 35 -50 88.5t-15 161.5z" />
<glyph unicode="v" horiz-adv-x="1073" d="M29 1106h233l270 -864h25l266 864h221l-364 -1057q-12 -33 -27.5 -43t-48.5 -10h-135q-33 0 -48 10t-28 43z" />
<glyph unicode="w" horiz-adv-x="1564" d="M51 1106h221l156 -864h21l192 811q8 33 24.5 45t51.5 12h143q61 0 76 -57l199 -811h20l152 864h206l-225 -1055q-8 -33 -23.5 -44t-50.5 -11h-159q-59 0 -74 57l-190 789h-17l-190 -789q-14 -57 -74 -57h-160q-35 0 -50 11t-24 44z" />
<glyph unicode="x" horiz-adv-x="1079" d="M20 0l383 565l-380 541h249l269 -391h18l264 391h234l-383 -553l385 -553h-250l-272 399h-19l-266 -399h-232z" />
<glyph unicode="y" horiz-adv-x="1122" d="M37 1106h244l290 -805h15l258 805h229l-452 -1280q-27 -74 -73 -105.5t-126 -31.5q-82 0 -225 14v178h200q29 0 45 37l31 82z" />
<glyph unicode="z" horiz-adv-x="1028" d="M76 0v127l594 788h-561v191h847v-115l-604 -801h592v-190h-868z" />
<glyph unicode="{" horiz-adv-x="942" d="M127 498v131q182 16 221 55q25 25 25 70q0 29 -18.5 147.5t-18.5 175.5q0 72 54 145.5t231 231.5h157q-135 -168 -179 -240.5t-44 -111.5q0 -49 18.5 -164t18.5 -156q0 -96 -45 -141t-185 -76v-4q137 -31 183.5 -80t46.5 -147q0 -35 -18.5 -154t-18.5 -155q0 -39 44 -112 t179 -241h-157q-176 158 -230.5 231.5t-54.5 145.5q0 49 18.5 171t18.5 163q0 37 -21 57q-39 40 -225 58z" />
<glyph unicode="|" horiz-adv-x="714" d="M260 -328v1925h195v-1925h-195z" />
<glyph unicode="}" horiz-adv-x="942" d="M164 -328q135 168 179 241t44 112q0 37 -18.5 155.5t-18.5 153.5q0 98 46 147t184 80v4q-139 31 -184.5 76t-45.5 141q0 41 18.5 156t18.5 164q0 39 -44 111.5t-179 240.5h158q176 -158 230 -231.5t54 -145.5q0 -57 -18.5 -176t-18.5 -147q0 -45 25 -70q39 -39 221 -55 v-131q-186 -18 -225 -58q-20 -20 -21 -57q0 -41 18.5 -163t18.5 -171q0 -72 -54 -145.5t-230 -231.5h-158z" />
<glyph unicode="~" horiz-adv-x="888" d="M137 522v129q0 74 29 103q27 27 78 26h30q61 0 168 -41l144 -53l57 94h109v-129q0 -74 -29 -102q-27 -27 -78 -27h-31q-61 0 -168 41l-143 53l-57 -94h-109z" />
<glyph unicode="&#xa1;" horiz-adv-x="686" d="M205 0v76l82 907h92l102 -907v-76h-276zM215 1161v273h256v-273h-256z" />
<glyph unicode="&#xa2;" horiz-adv-x="1114" d="M123 722.5q0 233.5 18.5 326t73.5 147.5q63 63 219 64h51v178h174v-178h89q125 0 180 -56q41 -41 57 -111.5t16 -222.5h-200q-4 164 -25 185q-18 18 -76 18h-49v-700h51q61 0 80 18q23 23 23 199h201q0 -166 -16.5 -235.5t-59.5 -112.5q-55 -55 -180 -56h-91v-190h-174 v190h-51q-156 0 -219 64q-55 55 -73.5 147t-18.5 325.5zM331 723q0 -299 31 -330q20 -20 95 -20h37v700h-37q-74 0 -95 -20q-31 -31 -31 -330z" />
<glyph unicode="&#xa3;" horiz-adv-x="1372" d="M113 0v197h188v376h-188v189h188v192q0 180 19.5 268.5t72.5 141.5q43 43 109.5 58.5t204.5 15.5h186q190 0 256 -66q49 -49 66.5 -126t19.5 -273h-223q-4 209 -35 239q-27 27 -121 27h-147q-117 0 -146 -29q-35 -35 -35 -233v-215h412v-189h-412v-376h713v-197h-1128z " />
<glyph unicode="&#xa5;" horiz-adv-x="1376" d="M88 1434h252l344 -637h16l338 637h240l-418 -756h299v-191h-358v-487h-230v487h-364v191h301z" />
<glyph unicode="&#xa7;" horiz-adv-x="1318" d="M96 735q0 158 58 215q43 43 147 51q-23 57 -22 146q0 156 67 223q66 66 244 66h196q139 0 191 -52q37 -37 51 -92t16 -186h-206q-4 111 -25 131q-16 16 -78 16h-127q-76 0 -96 -20q-18 -18 -18 -105q0 -68 22.5 -90t93.5 -28l367 -29q141 -10 190 -59q55 -55 56 -224 q0 -158 -58 -215q-45 -45 -147 -51q23 -57 22 -145q0 -156 -67 -224q-66 -66 -244 -65h-197q-139 0 -190 51q-37 37 -51.5 92.5t-16.5 186.5h207q4 -111 25 -131q16 -16 78 -17h127q76 0 96 21q18 18 18 104q0 68 -22.5 90.5t-93.5 28.5l-367 29q-141 10 -190 59 q-56 55 -56 223zM293 745q0 -78 20 -100q18 -20 101 -27l489 -34q23 -2 39 -2q47 0 59 12q25 25 25 94q0 78 -20 100q-18 20 -101 27l-489 35q-23 2 -39 2q-47 0 -60 -12q-24 -25 -24 -95z" />
<glyph unicode="&#xa8;" d="M209 1249v226h227v-226h-227zM588 1249v226h227v-226h-227z" />
<glyph unicode="&#xa9;" horiz-adv-x="1613" d="M182 716.5q0 475.5 135 610.5q55 55 127 81t218 26h290q145 0 217 -26t127 -81q135 -135 135.5 -610t-135.5 -611q-55 -55 -126.5 -80.5t-217.5 -25.5h-290q-145 0 -217.5 25.5t-127.5 80.5q-135 135 -135 610.5zM250 717q0 -446 117 -567q45 -47 107.5 -68t193.5 -21 h278q131 0 193.5 19.5t105.5 66.5q119 123 119 570q0 444 -119 567q-45 47 -107.5 67.5t-191.5 20.5h-278q-131 0 -194.5 -19.5t-106.5 -66.5q-117 -120 -117 -569zM506 731q0 186 16.5 258t52.5 105q39 33 132 32h217q92 0 127 -32q59 -53 61 -226h-129q-2 106 -25 129 q-12 12 -55 13h-178q-45 0 -57 -13q-27 -27 -27 -266t27 -266q12 -12 57 -12h178q39 0 55 12q23 23 25 145h131q-4 -117 -17.5 -164t-45.5 -77q-37 -31 -127 -31h-219q-94 0 -127 31q-37 33 -54.5 105.5t-17.5 256.5z" />
<glyph unicode="&#xaa;" horiz-adv-x="1021" d="M180 864q0 141 49 191q59 59 258 59q111 0 191 -22v71q0 104 -14 119q-12 12 -62 12h-172q-35 0 -45 -10t-12 -94h-158q2 156 47 201q43 43 135 43h232q113 0 153 -41q29 -29 39 -72t10 -147v-529h-153v94q-70 -59 -108 -77.5t-85 -18.5h-112q-98 0 -144 45 q-49 49 -49 176zM188 338v137h643v-137h-643zM340 887q0 -78 14 -92q12 -12 58 -13h100q80 0 166 49v158h-197q-111 0 -125 -14q-16 -16 -16 -88z" />
<glyph unicode="&#xab;" horiz-adv-x="1310" d="M133 477v152l295 301h248l-344 -375l348 -379h-252zM641 477v152l295 301h248l-344 -375l348 -379h-252z" />
<glyph unicode="&#xad;" horiz-adv-x="839" d="M127 543v219h586v-219h-586z" />
<glyph unicode="&#xae;" horiz-adv-x="864" d="M82 1038q0 256 76 336q59 59 188 60h172q129 0 189 -60q76 -80 75.5 -336t-75.5 -336q-60 -59 -189 -59h-172q-129 0 -188 59q-76 80 -76 336zM133.5 1038.5q-0.5 -243.5 59.5 -303.5q42 -45 157 -45h164q115 0 158 45q59 59 59 303t-59 303q-43 45 -158 45h-164 q-115 0 -157 -45q-59 -59 -59.5 -302.5zM276 831v433h238q43 0 61 -19q27 -27 27 -104q0 -55 -15.5 -78t-54.5 -27v-2q37 -6 51.5 -21.5t16.5 -60.5q4 -104 6 -121h-74q-8 33 -8 115q0 39 -12 51q-10 8 -45 9h-117v-175h-74zM350 1067h139q20 0 27 6q14 15 14 62 q0 45 -14 59q-6 6 -27 6h-139v-133z" />
<glyph unicode="&#xaf;" d="M203 1249v174h618v-174h-618z" />
<glyph unicode="&#xb0;" horiz-adv-x="872" d="M131 1091.5q0 133.5 15.5 194t52.5 96.5q51 51 159 52h156q109 0 160 -52q37 -37 52 -97t15 -193.5t-15 -193.5t-52 -97q-51 -51 -160 -51h-156q-109 0 -159 51q-37 37 -52.5 97t-15.5 193.5zM293 1092q0 -154 20 -174q17 -19 66 -19h115q49 0 65 19q20 20 20.5 173.5 t-20.5 174.5q-16 18 -65 18h-115q-49 0 -66 -18q-20 -20 -20 -174z" />
<glyph unicode="&#xb1;" horiz-adv-x="1040" d="M115 184v193h811v-193h-811zM115 799v192h309v309h192v-309h310v-192h-310v-310h-192v310h-309z" />
<glyph unicode="&#xb2;" horiz-adv-x="1300" d="M139 0v158q0 176 21.5 257t79.5 140q63 66 219 127l356 139q84 35 107 78q27 53 26.5 159.5t-37.5 143.5q-29 29 -135 29h-217q-94 0 -123 -33q-29 -35 -35 -205h-235q4 158 27.5 240t70.5 129q72 72 262 72h316q178 0 245 -68q96 -96 97 -307q0 -195 -72 -293 q-53 -74 -233 -145l-361 -142q-80 -33 -108 -63q-25 -29 -35 -67t-10 -126v-20h827v-203h-1053z" />
<glyph unicode="&#xb3;" horiz-adv-x="1353" d="M127 463h235q8 -209 39 -240q29 -27 119 -26h285q92 0 121 28q41 41 41 197q0 158 -41 199q-29 26 -117 26h-305v191h291q90 0 118 28q41 41 41 172t-41 172q-27 27 -116 27h-265q-90 0 -116 -27q-33 -33 -41 -209h-236q0 258 105 363q70 70 250 70h366q176 0 244 -68 q96 -96 96 -307q0 -135 -54 -214t-138 -100v-4q205 -37 204 -327q0 -250 -96 -346q-68 -68 -244 -68h-391q-182 0 -252 70q-102 102 -102 393z" />
<glyph unicode="&#xb4;" d="M281 1245v10l174 220h340v-11l-308 -219h-206z" />
<glyph unicode="&#xb6;" horiz-adv-x="1146" d="M90 987q0 281 117 393q55 53 221 54h551v-1434h-229v528h-322q-152 0 -207 54q-131 122 -131 405z" />
<glyph unicode="&#xb7;" horiz-adv-x="591" d="M168 516v272h256v-272h-256z" />
<glyph unicode="&#xb8;" d="M268 -272h242q33 0 41 8t8 38.5t-8 39t-41 8.5h-90v121h127q96 0 127 -31q39 -39 39 -139q0 -98 -39 -138q-33 -33 -133 -32h-156l-117 82v43z" />
<glyph unicode="&#xb9;" horiz-adv-x="778" d="M37 1307l348 129h188v-1436h-229v1202l-242 -82z" />
<glyph unicode="&#xba;" horiz-adv-x="1101" d="M201 1042q0 150 16 223.5t57 114.5q53 53 175 54h215q121 0 174 -54q41 -41 57 -114.5t16 -223.5q0 -154 -16 -228.5t-57 -115.5q-53 -53 -174 -53h-215q-121 0 -175 53q-41 41 -57 116t-16 228zM205 338v137h702v-137h-702zM377 1042q0 -199 29 -227q18 -18 75 -18h150 q57 0 76 18q29 29 28 227q0 193 -28 222q-18 18 -76 18h-150q-57 0 -75 -18q-29 -29 -29 -222z" />
<glyph unicode="&#xbb;" horiz-adv-x="1310" d="M123 176l348 379l-344 375h248l295 -301v-152l-295 -301h-252zM631 176l348 379l-344 375h248l295 -301v-152l-295 -301h-252z" />
<glyph unicode="&#xbc;" horiz-adv-x="3334" d="M37 1307l348 129h188v-1436h-229v1202l-242 -82zM798 -6l529 764l461 682h178l-529 -764l-460 -682h-179zM2079 362v74q0 88 51 170l439 711q41 68 77.5 92.5t96.5 24.5h270v-885h242v-187h-242v-362h-223v362h-711zM2333 549h457v696h-35z" />
<glyph unicode="&#xbd;" horiz-adv-x="3287" d="M37 1307l348 129h188v-1436h-229v1202l-242 -82zM798 -6l529 764l461 682h178l-529 -764l-460 -682h-179zM2126 0v158q0 176 21.5 257t79.5 140q63 66 219 127l356 139q84 35 107 78q27 53 26.5 159.5t-37.5 143.5q-29 29 -135 29h-217q-94 0 -123 -33q-29 -35 -35 -205 h-235q4 158 27.5 240t70.5 129q72 72 262 72h316q178 0 245 -68q96 -96 97 -307q0 -195 -72 -293q-53 -74 -233 -145l-361 -142q-80 -33 -108 -63q-25 -29 -35 -67t-10 -126v-20h827v-203h-1053z" />
<glyph unicode="&#xbe;" horiz-adv-x="3909" d="M127 463h235q8 -209 39 -240q29 -27 119 -26h285q92 0 121 28q41 41 41 197q0 158 -41 199q-29 26 -117 26h-305v191h291q90 0 118 28q41 41 41 172t-41 172q-27 27 -116 27h-265q-90 0 -116 -27q-33 -33 -41 -209h-236q0 258 105 363q70 70 250 70h366q176 0 244 -68 q96 -96 96 -307q0 -135 -54 -214t-138 -100v-4q205 -37 204 -327q0 -250 -96 -346q-68 -68 -244 -68h-391q-182 0 -252 70q-102 102 -102 393zM1374 -6l529 764l461 682h178l-529 -764l-460 -682h-179zM2654 362v74q0 88 51 170l439 711q41 68 77.5 92.5t96.5 24.5h270v-885 h242v-187h-242v-362h-223v362h-711zM2908 549h457v696h-35z" />
<glyph unicode="&#xbf;" horiz-adv-x="1118" d="M102 369q0 137 15.5 196.5t64.5 108.5q39 39 213 117q76 33 109 65q27 27 35 127h170v-59q0 -98 -10.5 -143.5t-39.5 -73.5q-43 -43 -184 -105q-84 -35 -114.5 -65.5t-30.5 -159.5q0 -133 24 -158q18 -18 90 -18h250q72 0 92 20q23 23 27 234h225q-2 -184 -17 -266.5 t-58 -125.5q-63 -63 -230 -63h-323q-166 0 -234 68q-41 41 -57.5 106.5t-16.5 194.5zM496 1161v273h256v-273h-256z" />
<glyph unicode="&#xc0;" horiz-adv-x="1347" d="M39 0l455 1384q10 35 25.5 45.5t55.5 10.5h199q39 0 54.5 -10.5t27.5 -45.5l455 -1384h-248l-125 403h-547l-125 -403h-227zM281 1772v10h340l174 -219v-11h-207zM451 596h426l-197 643h-31z" />
<glyph unicode="&#xc1;" horiz-adv-x="1347" d="M39 0l455 1384q10 35 25.5 45.5t55.5 10.5h199q39 0 54.5 -10.5t27.5 -45.5l455 -1384h-248l-125 403h-547l-125 -403h-227zM451 596h426l-197 643h-31zM541 1552v11l174 219h340v-10l-307 -220h-207z" />
<glyph unicode="&#xc2;" horiz-adv-x="1347" d="M39 0l455 1384q10 35 25.5 45.5t55.5 10.5h199q39 0 54.5 -10.5t27.5 -45.5l455 -1384h-248l-125 403h-547l-125 -403h-227zM340 1552v11l205 239h246l204 -239v-11h-178l-151 107l-152 -107h-174zM451 596h426l-197 643h-31z" />
<glyph unicode="&#xc3;" horiz-adv-x="1347" d="M39 0l455 1384q10 35 25.5 45.5t55.5 10.5h199q39 0 54.5 -10.5t27.5 -45.5l455 -1384h-248l-125 403h-547l-125 -403h-227zM360 1552v129q0 74 29 103q27 27 78 26h31q59 0 168 -41l143 -53l57 94h109v-129q0 -74 -29 -102q-27 -27 -78 -27h-30q-59 0 -168 41l-144 54 l-57 -95h-109zM451 596h426l-197 643h-31z" />
<glyph unicode="&#xc4;" horiz-adv-x="1347" d="M39 0l455 1384q10 35 25.5 45.5t55.5 10.5h199q39 0 54.5 -10.5t27.5 -45.5l455 -1384h-248l-125 403h-547l-125 -403h-227zM365 1556v226h227v-226h-227zM451 596h426l-197 643h-31zM743 1556v226h228v-226h-228z" />
<glyph unicode="&#xc5;" horiz-adv-x="1347" d="M39 0l444 1356q-20 12 -28 20q-53 53 -53.5 164t53.5 164q41 41 137 41h168q96 0 137 -41q53 -53 53 -163.5t-53 -164.5q-14 -14 -31 -22l445 -1354h-248l-125 403h-547l-125 -403h-227zM451 596h426l-197 643h-31zM543 1540.5q0 -61.5 16 -78.5q12 -12 53 -12h127 q41 0 54 12q16 16 16 78t-16 78q-13 12 -54 12h-127q-41 0 -53 -12q-16 -16 -16 -77.5z" />
<glyph unicode="&#xc6;" horiz-adv-x="1996" d="M0 0l743 1374q20 35 38 47.5t57 12.5h1058v-197h-749v-395h620v-197h-620v-448h749v-197h-978v444h-447l-238 -444h-233zM571 637h347v612h-21z" />
<glyph unicode="&#xc7;" horiz-adv-x="1345" d="M137 717q0 336 31 467t98 192q37 33 85 45.5t149 12.5h397q100 0 148.5 -12.5t84.5 -45.5q63 -55 91 -144t30 -269h-229q-8 215 -47 251q-27 23 -103 23h-348q-76 0 -102 -23q-51 -47 -51 -497.5t51 -497.5q27 -23 102 -22h348h11q66 0 92 22q41 37 47 275h231 q-8 -205 -33.5 -292t-89.5 -145q-37 -33 -85 -45t-148 -12h-397q-100 0 -148.5 12.5t-85.5 44.5q-68 61 -98.5 192.5t-30.5 467.5zM451 -272h241q33 0 41 8t8 38.5t-8 39t-41 8.5h-90v121h127q96 0 127 -31q39 -39 39 -139q0 -98 -39 -138q-33 -33 -133 -32h-156l-116 82v43 z" />
<glyph unicode="&#xc8;" horiz-adv-x="1247" d="M168 0v1434h979v-197h-750v-395h621v-197h-621v-448h750v-197h-979zM272 1772v10h340l174 -219v-11h-206z" />
<glyph unicode="&#xc9;" horiz-adv-x="1247" d="M168 0v1434h979v-197h-750v-395h621v-197h-621v-448h750v-197h-979zM532 1552v11l175 219h340v-10l-308 -220h-207z" />
<glyph unicode="&#xca;" horiz-adv-x="1247" d="M168 0v1434h979v-197h-750v-395h621v-197h-621v-448h750v-197h-979zM332 1552v11l205 239h245l205 -239v-11h-178l-152 107l-151 -107h-174z" />
<glyph unicode="&#xcb;" horiz-adv-x="1247" d="M168 0v1434h979v-197h-750v-395h621v-197h-621v-448h750v-197h-979zM356 1556v226h228v-226h-228zM735 1556v226h228v-226h-228z" />
<glyph unicode="&#xcc;" horiz-adv-x="589" d="M-92 1772v10h340l174 -219v-11h-207zM180 0v1434h230v-1434h-230z" />
<glyph unicode="&#xcd;" horiz-adv-x="589" d="M168 1552v11l174 219h340v-10l-307 -220h-207zM180 0v1434h230v-1434h-230z" />
<glyph unicode="&#xce;" horiz-adv-x="589" d="M-33 1552v11l205 239h246l205 -239v-11h-179l-151 107l-152 -107h-174zM180 0v1434h230v-1434h-230z" />
<glyph unicode="&#xcf;" horiz-adv-x="589" d="M-8 1556v226h227v-226h-227zM180 0v1434h230v-1434h-230zM371 1556v226h227v-226h-227z" />
<glyph unicode="&#xd0;" horiz-adv-x="1417" d="M-4 629v188h192v617h623q129 0 209 -24t139 -77q139 -127 139 -616.5t-139 -616.5q-59 -53 -139 -76.5t-209 -23.5h-623v629h-192zM418 197h393q127 0 174 45q43 41 61.5 140.5t18.5 332.5q0 238 -18.5 337t-61.5 140q-33 29 -67.5 37t-106.5 8h-393v-420h315v-188h-315 v-432z" />
<glyph unicode="&#xd1;" horiz-adv-x="1476" d="M168 0v1434h254q45 0 65.5 -13.5t38.5 -54.5l529 -1006h30v1074h224v-1434h-234q-45 0 -66.5 13.5t-39.5 54.5l-547 1054h-31v-1122h-223zM430 1552v129q0 74 29 103q27 27 78 26h30q59 0 168 -41l144 -53l57 94h108v-129q0 -74 -28 -102q-27 -27 -78 -27h-31 q-59 0 -168 41l-143 54l-57 -95h-109z" />
<glyph unicode="&#xd2;" horiz-adv-x="1409" d="M137 717q0 336 31 467t98 192q37 33 85.5 45.5t148.5 12.5h409q100 0 148.5 -12.5t85.5 -45.5q68 -61 98.5 -192t30.5 -467t-31 -467t-98 -193q-37 -33 -85 -45t-149 -12h-409q-100 0 -148.5 12.5t-85.5 44.5q-68 61 -98.5 192.5t-30.5 467.5zM317 1772v10h340l174 -219 v-11h-206zM371 716.5q0 -450.5 51 -497.5q27 -23 102 -22h361h10q66 0 92 22q51 47 51 497.5t-51 497.5q-27 23 -102 23h-361q-76 0 -102 -23q-51 -47 -51 -497.5z" />
<glyph unicode="&#xd3;" horiz-adv-x="1409" d="M137 717q0 336 31 467t98 192q37 33 85.5 45.5t148.5 12.5h409q100 0 148.5 -12.5t85.5 -45.5q68 -61 98.5 -192t30.5 -467t-31 -467t-98 -193q-37 -33 -85 -45t-149 -12h-409q-100 0 -148.5 12.5t-85.5 44.5q-68 61 -98.5 192.5t-30.5 467.5zM371 716.5 q0 -450.5 51 -497.5q27 -23 102 -22h361h10q66 0 92 22q51 47 51 497.5t-51 497.5q-27 23 -102 23h-361q-76 0 -102 -23q-51 -47 -51 -497.5zM578 1552v11l174 219h340v-10l-308 -220h-206z" />
<glyph unicode="&#xd4;" horiz-adv-x="1409" d="M137 717q0 336 31 467t98 192q37 33 85.5 45.5t148.5 12.5h409q100 0 148.5 -12.5t85.5 -45.5q68 -61 98.5 -192t30.5 -467t-31 -467t-98 -193q-37 -33 -85 -45t-149 -12h-409q-100 0 -148.5 12.5t-85.5 44.5q-68 61 -98.5 192.5t-30.5 467.5zM371 716.5 q0 -450.5 51 -497.5q27 -23 102 -22h361h10q66 0 92 22q51 47 51 497.5t-51 497.5q-27 23 -102 23h-361q-76 0 -102 -23q-51 -47 -51 -497.5zM377 1552v11l205 239h245l205 -239v-11h-178l-152 107l-151 -107h-174z" />
<glyph unicode="&#xd5;" horiz-adv-x="1409" d="M137 717q0 336 31 467t98 192q37 33 85.5 45.5t148.5 12.5h409q100 0 148.5 -12.5t85.5 -45.5q68 -61 98.5 -192t30.5 -467t-31 -467t-98 -193q-37 -33 -85 -45t-149 -12h-409q-100 0 -148.5 12.5t-85.5 44.5q-68 61 -98.5 192.5t-30.5 467.5zM371 716.5 q0 -450.5 51 -497.5q27 -23 102 -22h361h10q66 0 92 22q51 47 51 497.5t-51 497.5q-27 23 -102 23h-361q-76 0 -102 -23q-51 -47 -51 -497.5zM397 1552v129q0 74 29 103q27 27 78 26h31q59 0 167 -41l144 -53l57 94h109v-129q0 -74 -29 -102q-27 -27 -78 -27h-31 q-59 0 -167 41l-144 54l-57 -95h-109z" />
<glyph unicode="&#xd6;" horiz-adv-x="1409" d="M137 717q0 336 31 467t98 192q37 33 85.5 45.5t148.5 12.5h409q100 0 148.5 -12.5t85.5 -45.5q68 -61 98.5 -192t30.5 -467t-31 -467t-98 -193q-37 -33 -85 -45t-149 -12h-409q-100 0 -148.5 12.5t-85.5 44.5q-68 61 -98.5 192.5t-30.5 467.5zM371 716.5 q0 -450.5 51 -497.5q27 -23 102 -22h361h10q66 0 92 22q51 47 51 497.5t-51 497.5q-27 23 -102 23h-361q-76 0 -102 -23q-51 -47 -51 -497.5zM401 1556v226h228v-226h-228zM780 1556v226h228v-226h-228z" />
<glyph unicode="&#xd7;" horiz-adv-x="1040" d="M141 500l244 243l-244 244l135 135l244 -243l244 243l135 -135l-244 -244l244 -243l-135 -135l-244 243l-244 -243z" />
<glyph unicode="&#xd8;" horiz-adv-x="1409" d="M137 717q0 336 31 467t98 192q37 33 85.5 45.5t148.5 12.5h409h33l51 108h211l-74 -156q4 -2 13 -10q68 -61 98.5 -192t30.5 -467t-31 -467t-98 -193q-37 -33 -85 -45t-149 -12h-409h-33l-51 -109h-211l74 154l-13 12q-68 61 -98.5 192.5t-30.5 467.5zM371 717 q0 -340 26 -447l453 967h-326q-76 0 -102 -23q-51 -46 -51 -497zM559 197h326h10q66 0 92 22q51 47 51 498q0 338 -26 444z" />
<glyph unicode="&#xd9;" horiz-adv-x="1452" d="M168 596v838h229v-887q0 -123 7.5 -190.5t15.5 -85t26 -35.5q33 -33 220 -33h129q182 0 215 33q18 18 25 36.5t13.5 83t6.5 191.5v887h229v-838q0 -256 -22.5 -352.5t-83.5 -157.5q-49 -49 -129 -67.5t-224 -18.5h-209q-260 0 -344 84q-61 61 -82.5 156.5t-21.5 355.5z M338 1772v10h340l174 -219v-11h-207z" />
<glyph unicode="&#xda;" horiz-adv-x="1452" d="M168 596v838h229v-887q0 -123 7.5 -190.5t15.5 -85t26 -35.5q33 -33 220 -33h129q182 0 215 33q18 18 25 36.5t13.5 83t6.5 191.5v887h229v-838q0 -256 -22.5 -352.5t-83.5 -157.5q-49 -49 -129 -67.5t-224 -18.5h-209q-260 0 -344 84q-61 61 -82.5 156.5t-21.5 355.5z M598 1552v11l174 219h340v-10l-307 -220h-207z" />
<glyph unicode="&#xdb;" horiz-adv-x="1452" d="M168 596v838h229v-887q0 -123 7.5 -190.5t15.5 -85t26 -35.5q33 -33 220 -33h129q182 0 215 33q18 18 25 36.5t13.5 83t6.5 191.5v887h229v-838q0 -256 -22.5 -352.5t-83.5 -157.5q-49 -49 -129 -67.5t-224 -18.5h-209q-260 0 -344 84q-61 61 -82.5 156.5t-21.5 355.5z M397 1552v11l205 239h246l205 -239v-11h-179l-151 107l-152 -107h-174z" />
<glyph unicode="&#xdc;" horiz-adv-x="1452" d="M168 596v838h229v-887q0 -123 7.5 -190.5t15.5 -85t26 -35.5q33 -33 220 -33h129q182 0 215 33q18 18 25 36.5t13.5 83t6.5 191.5v887h229v-838q0 -256 -22.5 -352.5t-83.5 -157.5q-49 -49 -129 -67.5t-224 -18.5h-209q-260 0 -344 84q-61 61 -82.5 156.5t-21.5 355.5z M422 1556v226h227v-226h-227zM801 1556v226h227v-226h-227z" />
<glyph unicode="&#xdd;" horiz-adv-x="1243" d="M6 1434h252l360 -637h17l354 637h248l-498 -861v-573h-229v567zM500 1552v11l174 219h340v-10l-307 -220h-207z" />
<glyph unicode="&#xde;" horiz-adv-x="1290" d="M168 0v1434h229v-265h486q162 0 221 -53q117 -104 117 -405q0 -285 -117 -394q-59 -53 -221 -53h-486v-264h-229zM397 461h428q88 0 111 18q51 41 51 237.5t-51 237.5q-23 18 -111 19h-428v-512z" />
<glyph unicode="&#xdf;" horiz-adv-x="1292" d="M68 920v186h182v47q0 186 69 256q66 66 197 66h313q152 0 209 -58q43 -43 60.5 -111.5t17.5 -205.5q0 -147 -38 -205.5t-132 -85.5v-2q129 -18 177 -91t48 -265q0 -170 -18 -253t-66 -130q-68 -68 -245 -68h-226v182h175q106 0 129 23q33 33 32 254q0 199 -30 229 q-20 20 -99 21h-184v190h131q84 0 102 19q27 27 27 182q0 143 -29 172q-23 23 -96 22h-203q-59 0 -82 -22q-27 -27 -26 -119v-1153h-213v920h-182z" />
<glyph unicode="&#xe0;" horiz-adv-x="1175" d="M109 297q0 193 67 260q43 43 112.5 61.5t254.5 18.5q174 0 272 -31v123q0 154 -24 178q-18 18 -97 19h-221q-70 0 -88 -18.5t-25 -137.5h-206q2 209 67 274q61 61 187 62h340q156 0 215 -59q39 -39 51 -97.5t12 -204.5v-745h-211v135q-104 -88 -151.5 -112.5 t-118.5 -24.5h-172q-141 0 -199 57q-66 66 -65 242zM215 1464v11h340l174 -220v-10h-207zM317 332q0 -115 21 -135q16 -16 86 -17h158q109 0 233 68v229h-287q-156 0 -184 -28q-27 -27 -27 -117z" />
<glyph unicode="&#xe1;" horiz-adv-x="1175" d="M109 297q0 193 67 260q43 43 112.5 61.5t254.5 18.5q174 0 272 -31v123q0 154 -24 178q-18 18 -97 19h-221q-70 0 -88 -18.5t-25 -137.5h-206q2 209 67 274q61 61 187 62h340q156 0 215 -59q39 -39 51 -97.5t12 -204.5v-745h-211v135q-104 -88 -151.5 -112.5 t-118.5 -24.5h-172q-141 0 -199 57q-66 66 -65 242zM317 332q0 -115 21 -135q16 -16 86 -17h158q109 0 233 68v229h-287q-156 0 -184 -28q-27 -27 -27 -117zM475 1245v10l174 220h340v-11l-307 -219h-207z" />
<glyph unicode="&#xe2;" horiz-adv-x="1175" d="M109 297q0 193 67 260q43 43 112.5 61.5t254.5 18.5q174 0 272 -31v123q0 154 -24 178q-18 18 -97 19h-221q-70 0 -88 -18.5t-25 -137.5h-206q2 209 67 274q61 61 187 62h340q156 0 215 -59q39 -39 51 -97.5t12 -204.5v-745h-211v135q-104 -88 -151.5 -112.5 t-118.5 -24.5h-172q-141 0 -199 57q-66 66 -65 242zM274 1245v10l205 240h246l205 -240v-10h-178l-152 107l-151 -107h-175zM317 332q0 -115 21 -135q16 -16 86 -17h158q109 0 233 68v229h-287q-156 0 -184 -28q-27 -27 -27 -117z" />
<glyph unicode="&#xe3;" horiz-adv-x="1175" d="M109 297q0 193 67 260q43 43 112.5 61.5t254.5 18.5q174 0 272 -31v123q0 154 -24 178q-18 18 -97 19h-221q-70 0 -88 -18.5t-25 -137.5h-206q2 209 67 274q61 61 187 62h340q156 0 215 -59q39 -39 51 -97.5t12 -204.5v-745h-211v135q-104 -88 -151.5 -112.5 t-118.5 -24.5h-172q-141 0 -199 57q-66 66 -65 242zM295 1245v129q0 74 29 103q27 27 77 26h31q59 0 168 -41l143 -53l58 94h108v-129q0 -74 -28 -102q-27 -27 -78 -27h-31q-59 0 -168 41l-143 53l-58 -94h-108zM317 332q0 -115 21 -135q16 -16 86 -17h158q109 0 233 68v229 h-287q-156 0 -184 -28q-27 -27 -27 -117z" />
<glyph unicode="&#xe4;" horiz-adv-x="1175" d="M109 297q0 193 67 260q43 43 112.5 61.5t254.5 18.5q174 0 272 -31v123q0 154 -24 178q-18 18 -97 19h-221q-70 0 -88 -18.5t-25 -137.5h-206q2 209 67 274q61 61 187 62h340q156 0 215 -59q39 -39 51 -97.5t12 -204.5v-745h-211v135q-104 -88 -151.5 -112.5 t-118.5 -24.5h-172q-141 0 -199 57q-66 66 -65 242zM299 1249v226h227v-226h-227zM317 332q0 -115 21 -135q16 -16 86 -17h158q109 0 233 68v229h-287q-156 0 -184 -28q-27 -27 -27 -117zM678 1249v226h227v-226h-227z" />
<glyph unicode="&#xe5;" horiz-adv-x="1175" d="M109 297q0 193 67 260q43 43 112.5 61.5t254.5 18.5q174 0 272 -31v123q0 154 -24 178q-18 18 -97 19h-221q-70 0 -88 -18.5t-25 -137.5h-206q2 209 67 274q61 61 187 62h340q156 0 215 -59q39 -39 51 -97.5t12 -204.5v-745h-211v135q-104 -88 -151.5 -112.5 t-118.5 -24.5h-172q-141 0 -199 57q-66 66 -65 242zM317 332q0 -115 21 -135q16 -16 86 -17h158q109 0 233 68v229h-287q-156 0 -184 -28q-27 -27 -27 -117zM328 1454q0 111 53 164q41 41 137 41h168q96 0 137 -41q53 -53 53.5 -164t-53.5 -164q-41 -41 -137 -41h-168 q-96 0 -137 41q-53 53 -53 164zM469 1454.5q0 -61.5 16 -78.5q12 -12 54 -12h127q41 0 53 12q16 16 16 78t-16 78q-12 12 -53 12h-127q-41 0 -54 -12q-16 -16 -16 -77.5z" />
<glyph unicode="&#xe6;" horiz-adv-x="1855" d="M109 299q0 193 67 260q43 43 113 61.5t254 18.5q174 0 272 -31v121q0 154 -24 178q-18 18 -97 19h-217q-70 0 -88 -18.5t-24 -137.5h-213q2 127 17 184.5t48 89.5q61 61 184 62h304q156 0 215 -59q8 -8 10 -13l8 8q63 63 219 64h266q158 0 219 -62q55 -55 74 -149 t19 -332v-59q0 -25 -25 -25h-690q2 -244 31 -272q20 -20 94 -21h287q53 0 73 21q18 18 23 137h207q-2 -129 -18.5 -188.5t-57.5 -100.5q-55 -55 -180 -55h-353q-156 0 -219 63q-43 43 -61 99q-131 -109 -179.5 -136.5t-121.5 -27.5h-172q-141 0 -199 57q-66 66 -65 244z M317 334q0 -117 21 -137q16 -16 86 -17h158q63 0 113 15.5t132 60.5q-12 84 -12 223h-287q-156 0 -184 -28q-27 -27 -27 -117zM1020 649h504q0 219 -31 250q-20 20 -94 21h-254q-73 0 -96 -23q-27 -27 -29 -248z" />
<glyph unicode="&#xe7;" horiz-adv-x="1136" d="M127 553q0 244 18.5 339t73.5 150q63 63 219 64h336q125 0 180 -55q41 -41 57.5 -112t16.5 -222h-207q-4 160 -24 180q-18 18 -76 18h-256q-74 0 -94 -20q-16 -16 -23.5 -79.5t-7.5 -262.5t7 -262.5t24 -79.5q20 -20 94 -21h258q61 0 80 19q22 22 22 194h207 q0 -166 -16.5 -235.5t-59.5 -112.5q-55 -55 -180 -55h-338q-156 0 -219 63q-55 55 -73.5 150.5t-18.5 339.5zM322 -272h241q33 0 41 8t8 38.5t-8 39t-41 8.5h-90v121h127q96 0 127 -31q39 -39 39 -139q0 -98 -39 -138q-33 -33 -133 -32h-156l-116 82v43z" />
<glyph unicode="&#xe8;" horiz-adv-x="1173" d="M127 553q0 244 18.5 339t73.5 150q63 63 219 64h303q158 0 220 -62q55 -55 73.5 -149t18.5 -332v-55q0 -25 -25 -25h-690q2 -248 31 -276q20 -20 94 -21h287q53 0 73 21q18 18 23 137h207q-2 -129 -18.5 -188.5t-57.5 -100.5q-55 -55 -180 -55h-359q-156 0 -219 63 q-55 55 -73.5 150.5t-18.5 339.5zM209 1464v11h340l174 -220v-10h-207zM338 653h504q0 215 -31 246q-20 20 -94 21h-254q-73 0 -96 -23q-27 -27 -29 -244z" />
<glyph unicode="&#xe9;" horiz-adv-x="1173" d="M127 553q0 244 18.5 339t73.5 150q63 63 219 64h303q158 0 220 -62q55 -55 73.5 -149t18.5 -332v-55q0 -25 -25 -25h-690q2 -248 31 -276q20 -20 94 -21h287q53 0 73 21q18 18 23 137h207q-2 -129 -18.5 -188.5t-57.5 -100.5q-55 -55 -180 -55h-359q-156 0 -219 63 q-55 55 -73.5 150.5t-18.5 339.5zM338 653h504q0 215 -31 246q-20 20 -94 21h-254q-73 0 -96 -23q-27 -27 -29 -244zM469 1245v10l174 220h340v-11l-307 -219h-207z" />
<glyph unicode="&#xea;" horiz-adv-x="1173" d="M127 553q0 244 18.5 339t73.5 150q63 63 219 64h303q158 0 220 -62q55 -55 73.5 -149t18.5 -332v-55q0 -25 -25 -25h-690q2 -248 31 -276q20 -20 94 -21h287q53 0 73 21q18 18 23 137h207q-2 -129 -18.5 -188.5t-57.5 -100.5q-55 -55 -180 -55h-359q-156 0 -219 63 q-55 55 -73.5 150.5t-18.5 339.5zM268 1245v10l205 240h246l205 -240v-10h-179l-151 107l-152 -107h-174zM338 653h504q0 215 -31 246q-20 20 -94 21h-254q-73 0 -96 -23q-27 -27 -29 -244z" />
<glyph unicode="&#xeb;" horiz-adv-x="1173" d="M127 553q0 244 18.5 339t73.5 150q63 63 219 64h303q158 0 220 -62q55 -55 73.5 -149t18.5 -332v-55q0 -25 -25 -25h-690q2 -248 31 -276q20 -20 94 -21h287q53 0 73 21q18 18 23 137h207q-2 -129 -18.5 -188.5t-57.5 -100.5q-55 -55 -180 -55h-359q-156 0 -219 63 q-55 55 -73.5 150.5t-18.5 339.5zM293 1249v226h227v-226h-227zM338 653h504q0 215 -31 246q-20 20 -94 21h-254q-73 0 -96 -23q-27 -27 -29 -244zM672 1249v226h227v-226h-227z" />
<glyph unicode="&#xec;" horiz-adv-x="524" d="M-125 1464v11h340l174 -220v-10h-207zM156 0v1106h213v-1106h-213z" />
<glyph unicode="&#xed;" horiz-adv-x="524" d="M135 1245v10l174 220h340v-11l-307 -219h-207zM156 0v1106h213v-1106h-213z" />
<glyph unicode="&#xee;" horiz-adv-x="524" d="M-66 1245v10l205 240h246l205 -240v-10h-178l-152 107l-151 -107h-175zM156 0v1106h213v-1106h-213z" />
<glyph unicode="&#xef;" horiz-adv-x="524" d="M-41 1249v226h227v-226h-227zM156 0v1106h213v-1106h-213zM338 1249v226h227v-226h-227z" />
<glyph unicode="&#xf0;" horiz-adv-x="1222" d="M137 502q0 207 18.5 295t73.5 143q63 63 220 64h147q68 0 119 -25t153 -109q-2 96 -22 172q-18 53 -103 168l-290 -100v162l194 65l-104 138h172l82 -84l278 96v-162l-164 -57q117 -129 144 -209q31 -84 30 -486q0 -260 -16 -355t-76 -155q-63 -63 -219 -63h-325 q-156 0 -220 63q-55 55 -73.5 143.5t-18.5 295.5zM350 502q0 -260 31 -291q20 -20 94 -21h273q74 0 94 20.5t25 86t5 276.5v177q-125 66 -215 65h-182q-74 0 -94 -20q-31 -31 -31 -293z" />
<glyph unicode="&#xf1;" horiz-adv-x="1224" d="M156 0v1106h213v-133q104 86 155 110.5t121 24.5h174q127 0 191 -64q35 -35 50 -88t15 -161v-795h-213v780q0 78 -28 107q-31 31 -115 31h-144q-84 0 -206 -62v-856h-213zM311 1245v129q0 74 29 103q27 27 78 26h31q59 0 167 -41l144 -53l57 94h109v-129q0 -74 -29 -102 q-27 -27 -78 -27h-31q-59 0 -167 41l-144 53l-57 -94h-109z" />
<glyph unicode="&#xf2;" horiz-adv-x="1202" d="M127 553q0 244 18.5 339t73.5 150q63 63 219 64h326q156 0 219 -64q55 -55 73.5 -150t18.5 -339t-18.5 -339t-73.5 -151q-63 -63 -219 -63h-326q-156 0 -219 63q-55 55 -73.5 150.5t-18.5 339.5zM213 1464v11h340l174 -220v-10h-207zM340 553q0 -199 7 -262.5t24 -79.5 q20 -20 94 -21h272q74 0 94 21q16 16 23.5 79.5t7.5 262.5t-7 262.5t-24 79.5q-20 20 -94 20h-272q-74 0 -94 -20q-16 -16 -23.5 -79.5t-7.5 -262.5z" />
<glyph unicode="&#xf3;" horiz-adv-x="1202" d="M127 553q0 244 18.5 339t73.5 150q63 63 219 64h326q156 0 219 -64q55 -55 73.5 -150t18.5 -339t-18.5 -339t-73.5 -151q-63 -63 -219 -63h-326q-156 0 -219 63q-55 55 -73.5 150.5t-18.5 339.5zM340 553q0 -199 7 -262.5t24 -79.5q20 -20 94 -21h272q74 0 94 21 q16 16 23.5 79.5t7.5 262.5t-7 262.5t-24 79.5q-20 20 -94 20h-272q-74 0 -94 -20q-16 -16 -23.5 -79.5t-7.5 -262.5zM473 1245v10l174 220h340v-11l-307 -219h-207z" />
<glyph unicode="&#xf4;" horiz-adv-x="1202" d="M127 553q0 244 18.5 339t73.5 150q63 63 219 64h326q156 0 219 -64q55 -55 73.5 -150t18.5 -339t-18.5 -339t-73.5 -151q-63 -63 -219 -63h-326q-156 0 -219 63q-55 55 -73.5 150.5t-18.5 339.5zM272 1245v10l205 240h246l205 -240v-10h-178l-152 107l-152 -107h-174z M340 553q0 -199 7 -262.5t24 -79.5q20 -20 94 -21h272q74 0 94 21q16 16 23.5 79.5t7.5 262.5t-7 262.5t-24 79.5q-20 20 -94 20h-272q-74 0 -94 -20q-16 -16 -23.5 -79.5t-7.5 -262.5z" />
<glyph unicode="&#xf5;" horiz-adv-x="1202" d="M127 553q0 244 18.5 339t73.5 150q63 63 219 64h326q156 0 219 -64q55 -55 73.5 -150t18.5 -339t-18.5 -339t-73.5 -151q-63 -63 -219 -63h-326q-156 0 -219 63q-55 55 -73.5 150.5t-18.5 339.5zM293 1245v129q0 74 29 103q27 27 77 26h31q61 0 168 -41l143 -53l58 94 h108v-129q0 -74 -28 -102q-27 -27 -78 -27h-31q-61 0 -168 41l-143 53l-58 -94h-108zM340 553q0 -199 7 -262.5t24 -79.5q20 -20 94 -21h272q74 0 94 21q16 16 23.5 79.5t7.5 262.5t-7 262.5t-24 79.5q-20 20 -94 20h-272q-74 0 -94 -20q-16 -16 -23.5 -79.5t-7.5 -262.5z " />
<glyph unicode="&#xf6;" horiz-adv-x="1202" d="M127 553q0 244 18.5 339t73.5 150q63 63 219 64h326q156 0 219 -64q55 -55 73.5 -150t18.5 -339t-18.5 -339t-73.5 -151q-63 -63 -219 -63h-326q-156 0 -219 63q-55 55 -73.5 150.5t-18.5 339.5zM297 1249v226h227v-226h-227zM340 553q0 -199 7 -262.5t24 -79.5 q20 -20 94 -21h272q74 0 94 21q16 16 23.5 79.5t7.5 262.5t-7 262.5t-24 79.5q-20 20 -94 20h-272q-74 0 -94 -20q-16 -16 -23.5 -79.5t-7.5 -262.5zM676 1249v226h227v-226h-227z" />
<glyph unicode="&#xf7;" horiz-adv-x="1040" d="M115 647v193h811v-193h-811zM403 311v230h234v-230h-234zM403 946v230h234v-230h-234z" />
<glyph unicode="&#xf8;" horiz-adv-x="1212" d="M129 -102l94 163v2q-55 55 -73.5 150.5t-18.5 339.5t18.5 339t73.5 150q63 63 219 64h326q10 0 28.5 -1t26.5 -1l58 104h200l-96 -166h2q55 -55 73.5 -150t18.5 -339t-18.5 -339t-73.5 -151q-63 -63 -219 -63h-326q-39 0 -55 2l-57 -104h-201zM344 553q0 -211 10 -287 l363 649h-248q-74 0 -94 -20q-16 -16 -23.5 -79.5t-7.5 -262.5zM492 190h249q74 0 95 21q16 16 23 79.5t7 262.5q0 211 -10 287z" />
<glyph unicode="&#xf9;" horiz-adv-x="1224" d="M150 311v795h212v-780q0 -78 29 -107q31 -31 115 -31h143q86 0 207 62v856h213v-1106h-213v133q-104 -84 -156.5 -109.5t-119.5 -25.5h-174q-127 0 -191 63q-35 35 -50 88.5t-15 161.5zM227 1464v11h340l174 -220v-10h-206z" />
<glyph unicode="&#xfa;" horiz-adv-x="1224" d="M150 311v795h212v-780q0 -78 29 -107q31 -31 115 -31h143q86 0 207 62v856h213v-1106h-213v133q-104 -84 -156.5 -109.5t-119.5 -25.5h-174q-127 0 -191 63q-35 35 -50 88.5t-15 161.5zM487 1245v10l175 220h339v-11l-307 -219h-207z" />
<glyph unicode="&#xfb;" horiz-adv-x="1224" d="M150 311v795h212v-780q0 -78 29 -107q31 -31 115 -31h143q86 0 207 62v856h213v-1106h-213v133q-104 -84 -156.5 -109.5t-119.5 -25.5h-174q-127 0 -191 63q-35 35 -50 88.5t-15 161.5zM287 1245v10l205 240h245l205 -240v-10h-178l-152 107l-151 -107h-174z" />
<glyph unicode="&#xfc;" horiz-adv-x="1224" d="M150 311v795h212v-780q0 -78 29 -107q31 -31 115 -31h143q86 0 207 62v856h213v-1106h-213v133q-104 -84 -156.5 -109.5t-119.5 -25.5h-174q-127 0 -191 63q-35 35 -50 88.5t-15 161.5zM311 1249v226h228v-226h-228zM690 1249v226h228v-226h-228z" />
<glyph unicode="&#xfd;" horiz-adv-x="1122" d="M37 1106h244l290 -805h15l258 805h229l-452 -1280q-27 -74 -73 -105.5t-126 -31.5q-82 0 -225 14v178h200q29 0 45 37l31 82zM446 1245v10l175 220h340v-11l-308 -219h-207z" />
<glyph unicode="&#xfe;" horiz-adv-x="1234" d="M156 -307v1782h213v-502q104 86 155 110.5t121 24.5h150q158 0 225 -68q49 -49 68.5 -146t19.5 -341t-19.5 -341t-68.5 -146q-68 -68 -225 -68h-150q-70 0 -121 24.5t-155 108.5v-438h-213zM369 254q125 -66 215 -66h159q86 0 113 27q23 23 31 88.5t8 249.5t-8 249.5 t-31 88.5q-27 27 -113 27h-168q-84 0 -206 -62v-602z" />
<glyph unicode="&#xff;" horiz-adv-x="1122" d="M37 1106h244l290 -805h15l258 805h229l-452 -1280q-27 -74 -73 -105.5t-126 -31.5q-82 0 -225 14v178h200q29 0 45 37l31 82zM270 1249v226h228v-226h-228zM649 1249v226h228v-226h-228z" />
<glyph unicode="&#x152;" horiz-adv-x="2078" d="M119 716.5q0 489.5 139 616.5q59 53 139 77t209 24h1372v-197h-749v-395h620v-197h-620v-448h749v-197h-1372q-129 0 -209 23.5t-139 76.5q-139 127 -139 616.5zM352 715q0 -233 18.5 -332.5t61.5 -140.5q47 -45 174 -45h393v1040h-393q-72 0 -106.5 -8t-67.5 -37 q-43 -41 -61.5 -140t-18.5 -337z" />
<glyph unicode="&#x153;" horiz-adv-x="1914" d="M127 553q0 244 18.5 339t73.5 150q63 63 219 64h295q152 0 215 -64l23 -26l24 26q63 63 215 64h273q158 0 219 -62q55 -55 73.5 -149t18.5 -332v-55q0 -25 -25 -25h-690q2 -248 31 -276q20 -20 94 -21h287q53 0 74 21q18 18 22 137h207q-2 -129 -18.5 -188.5 t-57.5 -100.5q-55 -55 -180 -55h-328q-152 0 -215 63l-24 27q-6 -10 -23 -27q-63 -63 -215 -63h-295q-156 0 -219 63q-55 55 -73.5 150.5t-18.5 339.5zM340 553q0 -199 7 -262.5t24 -79.5q20 -20 94 -21h272q74 0 94 21q16 16 23.5 79.5t7.5 262.5t-7 262.5t-24 79.5 q-20 20 -94 20h-272q-74 0 -94 -20q-16 -16 -23.5 -79.5t-7.5 -262.5zM1079 653h504q0 215 -31 246q-20 20 -94 21h-254q-73 0 -96 -23q-27 -27 -29 -244z" />
<glyph unicode="&#x178;" horiz-adv-x="1243" d="M6 1434h252l360 -637h17l354 637h248l-498 -861v-573h-229v567zM324 1556v226h227v-226h-227zM702 1556v226h228v-226h-228z" />
<glyph unicode="&#x2c6;" d="M184 1245v10l205 240h246l205 -240v-10h-178l-152 107l-152 -107h-174z" />
<glyph unicode="&#x2dc;" d="M205 1245v129q0 74 28 103q27 27 78 26h31q59 0 168 -41l143 -53l58 94h108v-129q0 -74 -28 -102q-27 -27 -78 -27h-31q-59 0 -168 41l-143 53l-58 -94h-108z" />
<glyph unicode="&#x2000;" horiz-adv-x="905" />
<glyph unicode="&#x2001;" horiz-adv-x="1810" />
<glyph unicode="&#x2002;" horiz-adv-x="905" />
<glyph unicode="&#x2003;" horiz-adv-x="1810" />
<glyph unicode="&#x2004;" horiz-adv-x="603" />
<glyph unicode="&#x2005;" horiz-adv-x="452" />
<glyph unicode="&#x2006;" horiz-adv-x="301" />
<glyph unicode="&#x2007;" horiz-adv-x="301" />
<glyph unicode="&#x2008;" horiz-adv-x="226" />
<glyph unicode="&#x2009;" horiz-adv-x="362" />
<glyph unicode="&#x200a;" horiz-adv-x="100" />
<glyph unicode="&#x2010;" horiz-adv-x="839" d="M127 543v219h586v-219h-586z" />
<glyph unicode="&#x2011;" horiz-adv-x="839" d="M127 543v219h586v-219h-586z" />
<glyph unicode="&#x2012;" horiz-adv-x="839" d="M127 543v219h586v-219h-586z" />
<glyph unicode="&#x2013;" horiz-adv-x="1146" d="M147 545v215h852v-215h-852z" />
<glyph unicode="&#x2014;" horiz-adv-x="2048" d="M147 547v211h1754v-211h-1754z" />
<glyph unicode="&#x2018;" horiz-adv-x="550" d="M141 881v260q0 78 60 139l176 180l74 -61l-134 -180q-16 -23 -16 -52v-14h96v-272h-256z" />
<glyph unicode="&#x2019;" horiz-adv-x="550" d="M100 915l133 181q16 23 17 51v14h-96v273h256v-260q0 -78 -60 -140l-176 -180z" />
<glyph unicode="&#x201a;" horiz-adv-x="550" d="M94 -246l133 180q16 23 17 52v14h-97v272h256v-260q0 -78 -59 -139l-176 -180z" />
<glyph unicode="&#x201c;" horiz-adv-x="989" d="M141 881v260q0 78 60 139l176 180l74 -61l-134 -180q-16 -23 -16 -52v-14h96v-272h-256zM580 881v260q0 78 59 139l176 180l74 -61l-133 -180q-16 -23 -17 -52v-14h97v-272h-256z" />
<glyph unicode="&#x201d;" horiz-adv-x="989" d="M100 915l133 181q16 23 17 51v14h-96v273h256v-260q0 -78 -60 -140l-176 -180zM539 915l133 181q16 23 16 51v14h-96v273h256v-260q0 -78 -60 -140l-176 -180z" />
<glyph unicode="&#x201e;" horiz-adv-x="989" d="M94 -246l133 180q16 23 17 52v14h-97v272h256v-260q0 -78 -59 -139l-176 -180zM532 -246l134 180q16 23 16 52v14h-96v272h256v-260q0 -78 -60 -139l-176 -180z" />
<glyph unicode="&#x2022;" horiz-adv-x="1085" d="M256 743q0 129 12.5 183.5t42.5 85.5q39 39 131 39h201q92 0 131 -39q31 -31 43 -85.5t12 -183.5t-12 -183t-43 -85q-39 -39 -131 -39h-201q-92 0 -131 39q-31 31 -43 85t-12 183z" />
<glyph unicode="&#x2026;" horiz-adv-x="1748" d="M168 0v266h250v-266h-250zM750 0v266h249v-266h-249zM1331 0v266h250v-266h-250z" />
<glyph unicode="&#x202f;" horiz-adv-x="362" />
<glyph unicode="&#x2039;" horiz-adv-x="802" d="M133 477v152l295 301h248l-344 -375l348 -379h-252z" />
<glyph unicode="&#x203a;" horiz-adv-x="802" d="M123 176l348 379l-344 375h248l295 -301v-152l-295 -301h-252z" />
<glyph unicode="&#x205f;" horiz-adv-x="452" />
<glyph unicode="&#x20ac;" horiz-adv-x="1423" d="M94 436v191h144v90v102h-144v191h152q12 166 40.5 242.5t80.5 123.5q37 33 85 45.5t148 12.5h336q100 0 148.5 -12.5t84.5 -45.5q63 -55 91 -144t30 -269h-225q-8 215 -47 251q-27 23 -103 23h-292q-76 0 -103 -23q-35 -31 -47 -204h371v-191h-377v-102v-90h377v-191 h-371q12 -186 47 -217q27 -23 103 -22h292q76 0 103 22q41 37 47 275h227q-8 -205 -33.5 -292t-89.5 -145q-37 -33 -85 -45t-148 -12h-336q-100 0 -148.5 12.5t-84.5 44.5q-51 47 -80 126t-41 253h-152z" />
<glyph unicode="&#x2122;" horiz-adv-x="1726" d="M82 1323v111h592v-111h-230v-678h-131v678h-231zM817 645v789h199q29 0 39 -8.5t18 -36.5l152 -596h18l152 596q8 29 18 37t39 8h193v-789h-129v662h-21l-174 -619q-8 -27 -19.5 -35t-39.5 -8h-70q-27 0 -38 8.5t-19 34.5l-174 619h-21v-662h-123z" />
<glyph unicode="&#x25fc;" horiz-adv-x="1105" d="M0 0v1106h1106v-1106h-1106z" />
</font>
</defs>
</svg>
